NotoSansCham-Regular.ufo
<glyph name="dollar" format="1">
  <advance width="1128"/>
  <unicode hex="0024"/>
  <outline>
    <contour>
      <point x="985" y="446" type="qcurve" smooth="yes"/>
      <point x="985" y="376"/>
      <point x="935" y="262"/>
      <point x="842" y="178"/>
      <point x="709" y="123"/>
      <point x="625" y="111" type="qcurve"/>
      <point x="625" y="-119" type="line"/>
      <point x="487" y="-119" type="line"/>
      <point x="487" y="102" type="line"/>
      <point x="437" y="102"/>
      <point x="335" y="111"/>
      <point x="239" y="129"/>
      <point x="155" y="155"/>
      <point x="123" y="172" type="qcurve"/>
      <point x="123" y="344" type="line"/>
      <point x="156" y="328"/>
      <point x="243" y="295"/>
      <point x="339" y="269"/>
      <point x="440" y="252"/>
      <point x="487" y="252" type="qcurve"/>
      <point x="487" y="686" type="line"/>
      <point x="398" y="716"/>
      <point x="267" y="782"/>
      <point x="181" y="867"/>
      <point x="139" y="977"/>
      <point x="139" y="1051" type="qcurve" smooth="yes"/>
      <point x="139" y="1118"/>
      <point x="188" y="1229"/>
      <point x="279" y="1312"/>
      <point x="408" y="1365"/>
      <point x="487" y="1374" type="qcurve"/>
      <point x="487" y="1554" type="line"/>
      <point x="625" y="1554" type="line"/>
      <point x="625" y="1378" type="line"/>
      <point x="725" y="1373"/>
      <point x="894" y="1331"/>
      <point x="961" y="1300" type="qcurve"/>
      <point x="895" y="1155" type="line"/>
      <point x="839" y="1180"/>
      <point x="699" y="1221"/>
      <point x="625" y="1227" type="qcurve"/>
      <point x="625" y="805" type="line"/>
      <point x="713" y="774"/>
      <point x="848" y="708"/>
      <point x="939" y="625"/>
      <point x="985" y="518"/>
    </contour>
    <contour>
      <point x="809" y="446" type="qcurve" smooth="yes"/>
      <point x="809" y="479"/>
      <point x="789" y="534"/>
      <point x="746" y="579"/>
      <point x="676" y="617"/>
      <point x="625" y="635" type="qcurve"/>
      <point x="625" y="262" type="line"/>
      <point x="718" y="276"/>
      <point x="809" y="374"/>
    </contour>
    <contour>
      <point x="315" y="1049" type="qcurve" smooth="yes"/>
      <point x="315" y="1013"/>
      <point x="332" y="956"/>
      <point x="372" y="909"/>
      <point x="438" y="871"/>
      <point x="487" y="854" type="qcurve"/>
      <point x="487" y="1223" type="line"/>
      <point x="398" y="1207"/>
      <point x="315" y="1118"/>
    </contour>
  </outline>
</glyph>
<glyph name="asterisk" format="1">
  <advance width="1128"/>
  <unicode hex="002A"/>
  <outline>
    <contour>
      <point x="664" y="1556" type="line"/>
      <point x="621" y="1163" type="line"/>
      <point x="1018" y="1274" type="line"/>
      <point x="1044" y="1081" type="line"/>
      <point x="666" y="1053" type="line"/>
      <point x="911" y="727" type="line"/>
      <point x="733" y="631" type="line"/>
      <point x="557" y="989" type="line"/>
      <point x="399" y="631" type="line"/>
      <point x="215" y="727" type="line"/>
      <point x="457" y="1053" type="line"/>
      <point x="82" y="1081" type="line"/>
      <point x="111" y="1274" type="line"/>
      <point x="502" y="1163" type="line"/>
      <point x="459" y="1556" type="line"/>
    </contour>
  </outline>
</glyph>
<glyph name="plus" format="1">
  <advance width="1128"/>
  <unicode hex="002B"/>
  <outline>
    <contour>
      <point x="489" y="647" type="line"/>
      <point x="102" y="647" type="line"/>
      <point x="102" y="797" type="line"/>
      <point x="489" y="797" type="line"/>
      <point x="489" y="1186" type="line"/>
      <point x="639" y="1186" type="line"/>
      <point x="639" y="797" type="line"/>
      <point x="1026" y="797" type="line"/>
      <point x="1026" y="647" type="line"/>
      <point x="639" y="647" type="line"/>
      <point x="639" y="262" type="line"/>
      <point x="489" y="262" type="line"/>
    </contour>
  </outline>
</glyph>
<glyph name="comma" format="1">
  <advance width="512"/>
  <unicode hex="002C"/>
  <outline>
    <contour>
      <point x="362" y="238" type="line"/>
      <point x="377" y="215" type="line"/>
      <point x="363" y="161"/>
      <point x="324" y="39"/>
      <point x="277" y="-85"/>
      <point x="226" y="-208"/>
      <point x="201" y="-264" type="qcurve"/>
      <point x="63" y="-264" type="line"/>
      <point x="78" y="-203"/>
      <point x="107" y="-71"/>
      <point x="134" y="60"/>
      <point x="156" y="185"/>
      <point x="164" y="238" type="qcurve"/>
    </contour>
  </outline>
</glyph>
<glyph name="hyphen" format="1">
  <advance width="659"/>
  <unicode hex="002D"/>
  <unicode hex="00AD"/>
  <outline>
    <contour>
      <point x="82" y="465" type="line"/>
      <point x="82" y="633" type="line"/>
      <point x="578" y="633" type="line"/>
      <point x="578" y="465" type="line"/>
    </contour>
  </outline>
</glyph>
<glyph name="slash" format="1">
  <advance width="764"/>
  <unicode hex="002F"/>
  <outline>
    <contour>
      <point x="743" y="1462" type="line"/>
      <point x="199" y="0" type="line"/>
      <point x="20" y="0" type="line"/>
      <point x="565" y="1462" type="line"/>
    </contour>
  </outline>
</glyph>
<glyph name="zero" format="1">
  <advance width="1128"/>
  <unicode hex="0030"/>
  <outline>
    <contour>
      <point x="1032" y="733" type="qcurve" smooth="yes"/>
      <point x="1032" y="556"/>
      <point x="981" y="276"/>
      <point x="868" y="82"/>
      <point x="690" y="-20"/>
      <point x="563" y="-20" type="qcurve" smooth="yes"/>
      <point x="445" y="-20"/>
      <point x="270" y="82"/>
      <point x="155" y="276"/>
      <point x="98" y="556"/>
      <point x="98" y="733" type="qcurve" smooth="yes"/>
      <point x="98" y="910"/>
      <point x="149" y="1190"/>
      <point x="260" y="1383"/>
      <point x="437" y="1485"/>
      <point x="563" y="1485" type="qcurve" smooth="yes"/>
      <point x="682" y="1485"/>
      <point x="858" y="1384"/>
      <point x="974" y="1191"/>
      <point x="1032" y="911"/>
    </contour>
    <contour>
      <point x="283" y="733" type="qcurve" smooth="yes"/>
      <point x="283" y="583"/>
      <point x="313" y="359"/>
      <point x="379" y="210"/>
      <point x="486" y="135"/>
      <point x="563" y="135" type="qcurve" smooth="yes"/>
      <point x="640" y="135"/>
      <point x="748" y="209"/>
      <point x="817" y="357"/>
      <point x="848" y="582"/>
      <point x="848" y="733" type="qcurve" smooth="yes"/>
      <point x="848" y="883"/>
      <point x="817" y="1107"/>
      <point x="748" y="1255"/>
      <point x="640" y="1329"/>
      <point x="563" y="1329" type="qcurve" smooth="yes"/>
      <point x="486" y="1329"/>
      <point x="379" y="1255"/>
      <point x="313" y="1107"/>
      <point x="283" y="883"/>
    </contour>
  </outline>
</glyph>
<glyph name="two" format="1">
  <advance width="1128"/>
  <unicode hex="0032"/>
  <outline>
    <contour>
      <point x="1008" y="0" type="line"/>
      <point x="96" y="0" type="line"/>
      <point x="96" y="156" type="line"/>
      <point x="446" y="537" type="line" smooth="yes"/>
      <point x="521" y="618"/>
      <point x="639" y="752"/>
      <point x="722" y="880"/>
      <point x="766" y="1009"/>
      <point x="766" y="1085" type="qcurve" smooth="yes"/>
      <point x="766" y="1144"/>
      <point x="732" y="1234"/>
      <point x="669" y="1297"/>
      <point x="583" y="1329"/>
      <point x="530" y="1329" type="qcurve" smooth="yes"/>
      <point x="435" y="1329"/>
      <point x="282" y="1252"/>
      <point x="213" y="1192" type="qcurve"/>
      <point x="111" y="1311" type="line"/>
      <point x="151" y="1347"/>
      <point x="243" y="1410"/>
      <point x="349" y="1456"/>
      <point x="467" y="1483"/>
      <point x="532" y="1483" type="qcurve" smooth="yes"/>
      <point x="628" y="1483"/>
      <point x="783" y="1429"/>
      <point x="891" y="1328"/>
      <point x="950" y="1183"/>
      <point x="950" y="1092" type="qcurve" smooth="yes"/>
      <point x="950" y="1007"/>
      <point x="897" y="853"/>
      <point x="804" y="704"/>
      <point x="675" y="554"/>
      <point x="600" y="473" type="qcurve" smooth="yes"/>
      <point x="319" y="174" type="line"/>
      <point x="319" y="166" type="line"/>
      <point x="1008" y="166" type="line"/>
    </contour>
  </outline>
</glyph>
<glyph name="three" format="1">
  <advance width="1128"/>
  <unicode hex="0033"/>
  <outline>
    <contour>
      <point x="961" y="1120" type="qcurve" smooth="yes"/>
      <point x="961" y="1047"/>
      <point x="915" y="927"/>
      <point x="832" y="839"/>
      <point x="716" y="782"/>
      <point x="645" y="770" type="qcurve"/>
      <point x="645" y="764" type="line"/>
      <point x="822" y="742"/>
      <point x="1006" y="561"/>
      <point x="1006" y="416" type="qcurve" smooth="yes"/>
      <point x="1006" y="320"/>
      <point x="941" y="160"/>
      <point x="809" y="44"/>
      <point x="607" y="-20"/>
      <point x="469" y="-20" type="qcurve" smooth="yes"/>
      <point x="360" y="-20"/>
      <point x="167" y="14"/>
      <point x="82" y="59" type="qcurve"/>
      <point x="82" y="229" type="line"/>
      <point x="169" y="183"/>
      <point x="372" y="133"/>
      <point x="465" y="133" type="qcurve" smooth="yes"/>
      <point x="557" y="133"/>
      <point x="691" y="173"/>
      <point x="778" y="247"/>
      <point x="819" y="355"/>
      <point x="819" y="422" type="qcurve" smooth="yes"/>
      <point x="819" y="490"/>
      <point x="766" y="587"/>
      <point x="668" y="650"/>
      <point x="527" y="680"/>
      <point x="438" y="680" type="qcurve" smooth="yes"/>
      <point x="305" y="680" type="line"/>
      <point x="305" y="831" type="line"/>
      <point x="438" y="831" type="line" smooth="yes"/>
      <point x="519" y="831"/>
      <point x="645" y="871"/>
      <point x="730" y="945"/>
      <point x="774" y="1047"/>
      <point x="774" y="1108" type="qcurve" smooth="yes"/>
      <point x="774" y="1160"/>
      <point x="738" y="1242"/>
      <point x="672" y="1299"/>
      <point x="580" y="1329"/>
      <point x="524" y="1329" type="qcurve" smooth="yes"/>
      <point x="417" y="1329"/>
      <point x="254" y="1262"/>
      <point x="180" y="1208" type="qcurve"/>
      <point x="88" y="1333" type="line"/>
      <point x="126" y="1364"/>
      <point x="219" y="1418"/>
      <point x="329" y="1459"/>
      <point x="454" y="1483"/>
      <point x="524" y="1483" type="qcurve" smooth="yes"/>
      <point x="632" y="1483"/>
      <point x="795" y="1429"/>
      <point x="905" y="1332"/>
      <point x="961" y="1199"/>
    </contour>
  </outline>
</glyph>
<glyph name="five" format="1">
  <advance width="1128"/>
  <unicode hex="0035"/>
  <outline>
    <contour>
      <point x="545" y="897" type="qcurve" smooth="yes"/>
      <point x="644" y="897"/>
      <point x="815" y="842"/>
      <point x="942" y="734"/>
      <point x="1014" y="574"/>
      <point x="1014" y="469" type="qcurve" smooth="yes"/>
      <point x="1014" y="355"/>
      <point x="946" y="173"/>
      <point x="812" y="47"/>
      <point x="615" y="-20"/>
      <point x="487" y="-20" type="qcurve" smooth="yes"/>
      <point x="436" y="-20"/>
      <point x="337" y="-10"/>
      <point x="246" y="9"/>
      <point x="164" y="39"/>
      <point x="131" y="59" type="qcurve"/>
      <point x="131" y="231" type="line"/>
      <point x="164" y="208"/>
      <point x="253" y="172"/>
      <point x="351" y="148"/>
      <point x="450" y="135"/>
      <point x="492" y="135" type="qcurve" smooth="yes"/>
      <point x="571" y="135"/>
      <point x="695" y="172"/>
      <point x="781" y="250"/>
      <point x="827" y="368"/>
      <point x="827" y="449" type="qcurve" smooth="yes"/>
      <point x="827" y="592"/>
      <point x="651" y="743"/>
      <point x="483" y="743" type="qcurve" smooth="yes"/>
      <point x="456" y="743"/>
      <point x="393" y="738"/>
      <point x="330" y="730"/>
      <point x="273" y="721"/>
      <point x="252" y="717" type="qcurve"/>
      <point x="162" y="774" type="line"/>
      <point x="217" y="1462" type="line"/>
      <point x="907" y="1462" type="line"/>
      <point x="907" y="1296" type="line"/>
      <point x="375" y="1296" type="line"/>
      <point x="336" y="877" type="line"/>
      <point x="368" y="883"/>
      <point x="473" y="897"/>
    </contour>
  </outline>
</glyph>
<glyph name="six" format="1">
  <advance width="1128"/>
  <unicode hex="0036"/>
  <outline>
    <contour>
      <point x="113" y="625" type="qcurve" smooth="yes"/>
      <point x="113" y="730"/>
      <point x="134" y="938"/>
      <point x="187" y="1129"/>
      <point x="279" y="1293"/>
      <point x="421" y="1414"/>
      <point x="619" y="1483"/>
      <point x="752" y="1483" type="qcurve" smooth="yes"/>
      <point x="771" y="1483"/>
      <point x="817" y="1481"/>
      <point x="864" y="1476"/>
      <point x="907" y="1469"/>
      <point x="924" y="1464" type="qcurve"/>
      <point x="924" y="1309" type="line"/>
      <point x="889" y="1321"/>
      <point x="801" y="1333"/>
      <point x="758" y="1333" type="qcurve" smooth="yes"/>
      <point x="668" y="1333"/>
      <point x="531" y="1290"/>
      <point x="431" y="1212"/>
      <point x="364" y="1104"/>
      <point x="322" y="973"/>
      <point x="302" y="825"/>
      <point x="299" y="745" type="qcurve"/>
      <point x="311" y="745" type="line"/>
      <point x="331" y="781"/>
      <point x="388" y="844"/>
      <point x="464" y="889"/>
      <point x="559" y="915"/>
      <point x="618" y="915" type="qcurve" smooth="yes"/>
      <point x="713" y="915"/>
      <point x="867" y="856"/>
      <point x="975" y="742"/>
      <point x="1034" y="577"/>
      <point x="1034" y="471" type="qcurve" smooth="yes"/>
      <point x="1034" y="357"/>
      <point x="972" y="175"/>
      <point x="856" y="48"/>
      <point x="692" y="-20"/>
      <point x="590" y="-20" type="qcurve" smooth="yes"/>
      <point x="490" y="-20"/>
      <point x="315" y="58"/>
      <point x="187" y="218"/>
      <point x="113" y="460"/>
    </contour>
    <contour>
      <point x="588" y="133" type="qcurve" smooth="yes"/>
      <point x="648" y="133"/>
      <point x="747" y="174"/>
      <point x="819" y="257"/>
      <point x="858" y="384"/>
      <point x="858" y="471" type="qcurve" smooth="yes"/>
      <point x="858" y="541"/>
      <point x="825" y="652"/>
      <point x="759" y="730"/>
      <point x="660" y="772"/>
      <point x="594" y="772" type="qcurve" smooth="yes"/>
      <point x="527" y="772"/>
      <point x="416" y="725"/>
      <point x="338" y="650"/>
      <point x="295" y="554"/>
      <point x="295" y="506" type="qcurve" smooth="yes"/>
      <point x="295" y="439"/>
      <point x="332" y="306"/>
      <point x="405" y="200"/>
      <point x="515" y="133"/>
    </contour>
  </outline>
</glyph>
<glyph name="eight" format="1">
  <advance width="1128"/>
  <unicode hex="0038"/>
  <outline>
    <contour>
      <point x="565" y="1485" type="qcurve" smooth="yes"/>
      <point x="649" y="1485"/>
      <point x="798" y="1441"/>
      <point x="911" y="1353"/>
      <point x="977" y="1221"/>
      <point x="977" y="1133" type="qcurve" smooth="yes"/>
      <point x="977" y="1066"/>
      <point x="937" y="958"/>
      <point x="867" y="871"/>
      <point x="771" y="802"/>
      <point x="715" y="774" type="qcurve"/>
      <point x="773" y="743"/>
      <point x="884" y="667"/>
      <point x="971" y="572"/>
      <point x="1024" y="454"/>
      <point x="1024" y="381" type="qcurve" smooth="yes"/>
      <point x="1024" y="289"/>
      <point x="957" y="140"/>
      <point x="836" y="36"/>
      <point x="667" y="-20"/>
      <point x="565" y="-20" type="qcurve" smooth="yes"/>
      <point x="455" y="-20"/>
      <point x="284" y="34"/>
      <point x="167" y="135"/>
      <point x="106" y="281"/>
      <point x="106" y="373" type="qcurve" smooth="yes"/>
      <point x="106" y="448"/>
      <point x="151" y="568"/>
      <point x="227" y="664"/>
      <point x="331" y="738"/>
      <point x="389" y="766" type="qcurve"/>
      <point x="340" y="797"/>
      <point x="254" y="870"/>
      <point x="191" y="960"/>
      <point x="154" y="1069"/>
      <point x="154" y="1135" type="qcurve" smooth="yes"/>
      <point x="154" y="1222"/>
      <point x="221" y="1353"/>
      <point x="335" y="1441"/>
      <point x="484" y="1485"/>
    </contour>
    <contour>
      <point x="285" y="371" type="qcurve" smooth="yes"/>
      <point x="285" y="318"/>
      <point x="317" y="229"/>
      <point x="385" y="166"/>
      <point x="489" y="131"/>
      <point x="561" y="131" type="qcurve" smooth="yes"/>
      <point x="631" y="131"/>
      <point x="738" y="166"/>
      <point x="810" y="231"/>
      <point x="846" y="323"/>
      <point x="846" y="379" type="qcurve" smooth="yes"/>
      <point x="846" y="431"/>
      <point x="807" y="515"/>
      <point x="734" y="587"/>
      <point x="632" y="651"/>
      <point x="569" y="682" type="qcurve" smooth="yes"/>
      <point x="539" y="696" type="line"/>
      <point x="413" y="636"/>
      <point x="285" y="481"/>
    </contour>
    <contour>
      <point x="563" y="1333" type="qcurve" smooth="yes"/>
      <point x="457" y="1333"/>
      <point x="332" y="1227"/>
      <point x="332" y="1126" type="qcurve" smooth="yes"/>
      <point x="332" y="1069"/>
      <point x="367" y="987"/>
      <point x="429" y="923"/>
      <point x="516" y="872"/>
      <point x="567" y="848" type="qcurve"/>
      <point x="615" y="870"/>
      <point x="700" y="922"/>
      <point x="763" y="988"/>
      <point x="799" y="1072"/>
      <point x="799" y="1126" type="qcurve" smooth="yes"/>
      <point x="799" y="1227"/>
      <point x="673" y="1333"/>
    </contour>
  </outline>
</glyph>
<glyph name="colon" format="1">
  <advance width="549"/>
  <unicode hex="003A"/>
  <outline>
    <contour>
      <point x="147" y="111" type="qcurve" smooth="yes"/>
      <point x="147" y="149"/>
      <point x="167" y="202"/>
      <point x="201" y="235"/>
      <point x="247" y="250"/>
      <point x="274" y="250" type="qcurve" smooth="yes"/>
      <point x="300" y="250"/>
      <point x="347" y="235"/>
      <point x="381" y="202"/>
      <point x="401" y="149"/>
      <point x="401" y="111" type="qcurve" smooth="yes"/>
      <point x="401" y="74"/>
      <point x="381" y="21"/>
      <point x="347" y="-13"/>
      <point x="300" y="-29"/>
      <point x="274" y="-29" type="qcurve" smooth="yes"/>
      <point x="247" y="-29"/>
      <point x="201" y="-13"/>
      <point x="167" y="21"/>
      <point x="147" y="74"/>
    </contour>
    <contour>
      <point x="147" y="987" type="qcurve" smooth="yes"/>
      <point x="147" y="1026"/>
      <point x="167" y="1079"/>
      <point x="201" y="1112"/>
      <point x="247" y="1126"/>
      <point x="274" y="1126" type="qcurve" smooth="yes"/>
      <point x="300" y="1126"/>
      <point x="347" y="1112"/>
      <point x="381" y="1079"/>
      <point x="401" y="1026"/>
      <point x="401" y="987" type="qcurve" smooth="yes"/>
      <point x="401" y="950"/>
      <point x="381" y="898"/>
      <point x="347" y="864"/>
      <point x="300" y="848"/>
      <point x="274" y="848" type="qcurve" smooth="yes"/>
      <point x="247" y="848"/>
      <point x="201" y="864"/>
      <point x="167" y="898"/>
      <point x="147" y="950"/>
    </contour>
  </outline>
</glyph>
<glyph name="less" format="1">
  <advance width="1128"/>
  <unicode hex="003C"/>
  <outline>
    <contour>
      <point x="1026" y="238" type="line"/>
      <point x="102" y="662" type="line"/>
      <point x="102" y="764" type="line"/>
      <point x="1026" y="1245" type="line"/>
      <point x="1026" y="1085" type="line"/>
      <point x="291" y="721" type="line"/>
      <point x="1026" y="399" type="line"/>
    </contour>
  </outline>
</glyph>
<glyph name="greater" format="1">
  <advance width="1128"/>
  <unicode hex="003E"/>
  <outline>
    <contour>
      <point x="102" y="399" type="line"/>
      <point x="838" y="721" type="line"/>
      <point x="102" y="1085" type="line"/>
      <point x="102" y="1245" type="line"/>
      <point x="1026" y="764" type="line"/>
      <point x="1026" y="662" type="line"/>
      <point x="102" y="238" type="line"/>
    </contour>
  </outline>
</glyph>
<glyph name="uniAA02" format="1">
  <advance width="1050"/>
  <unicode hex="AA02"/>
  <outline>
    <contour>
      <point x="561" y="357" type="qcurve"/>
      <point x="451" y="263"/>
      <point x="451" y="200" type="qcurve" smooth="yes"/>
      <point x="451" y="140"/>
      <point x="545" y="140" type="qcurve" smooth="yes"/>
      <point x="659" y="140"/>
      <point x="684" y="316" type="qcurve"/>
      <point x="799" y="296" type="line"/>
      <point x="799" y="0"/>
      <point x="545" y="0" type="qcurve" smooth="yes"/>
      <point x="291" y="0"/>
      <point x="291" y="200" type="qcurve" smooth="yes"/>
      <point x="291" y="334"/>
      <point x="493" y="492" type="qcurve"/>
      <point x="790" y="732"/>
      <point x="790" y="850" type="qcurve" smooth="yes"/>
      <point x="790" y="1030"/>
      <point x="525" y="1030" type="qcurve" smooth="yes"/>
      <point x="270" y="1030"/>
      <point x="270" y="830" type="qcurve" smooth="yes"/>
      <point x="270" y="678"/>
      <point x="410" y="637" type="qcurve"/>
      <point x="357" y="525" type="line"/>
      <point x="100" y="570"/>
      <point x="100" y="830" type="qcurve" smooth="yes"/>
      <point x="100" y="1200"/>
      <point x="525" y="1200" type="qcurve" smooth="yes"/>
      <point x="950" y="1200"/>
      <point x="950" y="850" type="qcurve" smooth="yes"/>
      <point x="950" y="640"/>
    </contour>
  </outline>
</glyph>
<glyph name="uniAA03" format="1">
  <advance width="1596"/>
  <unicode hex="AA03"/>
  <outline>
    <contour>
      <point x="425" y="1029" type="qcurve"/>
      <point x="260" y="1015"/>
      <point x="260" y="830" type="qcurve" smooth="yes"/>
      <point x="260" y="658"/>
      <point x="356" y="618" type="qcurve"/>
      <point x="278" y="523" type="line"/>
      <point x="100" y="570"/>
      <point x="100" y="830" type="qcurve" smooth="yes"/>
      <point x="100" y="1197"/>
      <point x="416" y="1197" type="qcurve" smooth="yes"/>
      <point x="751" y="1197"/>
      <point x="751" y="880" type="qcurve" smooth="yes"/>
      <point x="751" y="861"/>
      <point x="750" y="840" type="qcurve" smooth="yes"/>
      <point x="720" y="705"/>
      <point x="641" y="517"/>
      <point x="641" y="400" type="qcurve"/>
      <point x="661" y="222"/>
      <point x="897" y="165" type="qcurve"/>
      <point x="877" y="220"/>
      <point x="877" y="269" type="qcurve" smooth="yes"/>
      <point x="877" y="344"/>
      <point x="1098" y="586"/>
      <point x="1098" y="629" type="qcurve" smooth="yes"/>
      <point x="1098" y="664"/>
      <point x="1084" y="701" type="qcurve"/>
      <point x="940" y="712"/>
      <point x="940" y="825" type="qcurve" smooth="yes"/>
      <point x="940" y="950"/>
      <point x="1065" y="950" type="qcurve" smooth="yes"/>
      <point x="1150" y="950"/>
      <point x="1177" y="869" type="qcurve"/>
      <point x="1190" y="917"/>
      <point x="1190" y="1000" type="qcurve" smooth="yes"/>
      <point x="1190" y="1141"/>
      <point x="936" y="1389"/>
      <point x="936" y="1534" type="qcurve" smooth="yes"/>
      <point x="936" y="1850"/>
      <point x="1266" y="1850" type="qcurve" smooth="yes"/>
      <point x="1596" y="1850"/>
      <point x="1596" y="1534" type="qcurve" smooth="yes"/>
      <point x="1596" y="1384"/>
      <point x="1473" y="1280" type="qcurve"/>
      <point x="1375" y="1328" type="line"/>
      <point x="1436" y="1402"/>
      <point x="1436" y="1534" type="qcurve" smooth="yes"/>
      <point x="1436" y="1680"/>
      <point x="1266" y="1680" type="qcurve" smooth="yes"/>
      <point x="1096" y="1680"/>
      <point x="1096" y="1534" type="qcurve" smooth="yes"/>
      <point x="1096" y="1425"/>
      <point x="1350" y="1167"/>
      <point x="1350" y="1000" type="qcurve" smooth="yes"/>
      <point x="1350" y="770"/>
      <point x="1247" y="716" type="qcurve"/>
      <point x="1263" y="658"/>
      <point x="1263" y="607" type="qcurve" smooth="yes"/>
      <point x="1263" y="492"/>
      <point x="1049" y="321"/>
      <point x="1049" y="173" type="qcurve" smooth="yes"/>
      <point x="1049" y="117"/>
      <point x="1076" y="92" type="qcurve"/>
      <point x="1025" y="0" type="line"/>
      <point x="501" y="70"/>
      <point x="481" y="400" type="qcurve"/>
      <point x="481" y="513"/>
      <point x="560" y="711"/>
      <point x="590" y="840" type="qcurve" smooth="yes"/>
      <point x="592" y="856"/>
      <point x="592" y="871" type="qcurve" smooth="yes"/>
      <point x="592" y="1018"/>
    </contour>
  </outline>
</glyph>
<glyph name="uniAA04" format="1">
  <advance width="1700"/>
  <unicode hex="AA04"/>
  <outline>
    <contour>
      <point x="100" y="750" type="qcurve" smooth="yes"/>
      <point x="100" y="1159"/>
      <point x="441" y="1196" type="qcurve" smooth="yes"/>
      <point x="468" y="1200"/>
      <point x="485" y="1200" type="qcurve" smooth="yes"/>
      <point x="629" y="1200"/>
      <point x="745" y="1130" type="qcurve" smooth="yes"/>
      <point x="802" y="1095"/>
      <point x="860" y="1095" type="qcurve" smooth="yes"/>
      <point x="918" y="1095"/>
      <point x="976" y="1130" type="qcurve" smooth="yes"/>
      <point x="1092" y="1200"/>
      <point x="1235" y="1200" type="qcurve" smooth="yes"/>
      <point x="1600" y="1200"/>
      <point x="1600" y="790" type="qcurve" smooth="yes"/>
      <point x="1600" y="386"/>
      <point x="1106" y="173" type="qcurve" smooth="yes"/>
      <point x="610" y="-45"/>
      <point x="610" y="-220" type="qcurve" smooth="yes"/>
      <point x="610" y="-360"/>
      <point x="732" y="-360" type="qcurve" smooth="yes"/>
      <point x="912" y="-360"/>
      <point x="912" y="-250" type="qcurve" smooth="yes"/>
      <point x="912" y="-167"/>
      <point x="850" y="-100" type="qcurve"/>
      <point x="943" y="-13" type="line"/>
      <point x="1072" y="-131"/>
      <point x="1072" y="-250" type="qcurve" smooth="yes"/>
      <point x="1072" y="-500"/>
      <point x="732" y="-500" type="qcurve" smooth="yes"/>
      <point x="452" y="-500"/>
      <point x="452" y="-220" type="qcurve" smooth="yes"/>
      <point x="452" y="101"/>
      <point x="1072" y="335" type="qcurve"/>
      <point x="1440" y="511"/>
      <point x="1440" y="790" type="qcurve" smooth="yes"/>
      <point x="1440" y="1030"/>
      <point x="1235" y="1030" type="qcurve" smooth="yes"/>
      <point x="1106" y="1030"/>
      <point x="1003" y="970" type="qcurve" smooth="yes"/>
      <point x="952" y="940"/>
      <point x="860" y="940" type="qcurve" smooth="yes"/>
      <point x="769" y="940"/>
      <point x="718" y="970" type="qcurve" smooth="yes"/>
      <point x="615" y="1030"/>
      <point x="495" y="1030" type="qcurve" smooth="yes"/>
      <point x="260" y="1030"/>
      <point x="260" y="750" type="qcurve" smooth="yes"/>
      <point x="260" y="518"/>
      <point x="341" y="499" type="qcurve"/>
      <point x="364" y="535"/>
      <point x="408" y="550"/>
      <point x="440" y="550" type="qcurve" smooth="yes"/>
      <point x="471" y="550"/>
      <point x="531" y="518"/>
      <point x="565" y="458"/>
      <point x="565" y="425" type="qcurve" smooth="yes"/>
      <point x="565" y="392"/>
      <point x="532" y="333"/>
      <point x="472" y="300"/>
      <point x="440" y="300" type="qcurve" smooth="yes"/>
      <point x="100" y="300"/>
    </contour>
  </outline>
</glyph>
<glyph name="uniAA09" format="1">
  <advance width="2540"/>
  <unicode hex="AA09"/>
  <outline>
    <contour>
      <point x="1383" y="1030" type="qcurve" smooth="yes"/>
      <point x="1150" y="1030"/>
      <point x="1150" y="870" type="qcurve" smooth="yes"/>
      <point x="1150" y="828"/>
      <point x="1263" y="647"/>
      <point x="1263" y="565" type="qcurve" smooth="yes"/>
      <point x="1263" y="482"/>
      <point x="1049" y="281"/>
      <point x="1049" y="173" type="qcurve" smooth="yes"/>
      <point x="1049" y="117"/>
      <point x="1076" y="92" type="qcurve"/>
      <point x="1025" y="0" type="line"/>
      <point x="501" y="70"/>
      <point x="481" y="400" type="qcurve"/>
      <point x="481" y="513"/>
      <point x="560" y="711"/>
      <point x="590" y="840" type="qcurve" smooth="yes"/>
      <point x="592" y="856"/>
      <point x="592" y="871" type="qcurve" smooth="yes"/>
      <point x="592" y="1018"/>
      <point x="425" y="1029" type="qcurve"/>
      <point x="260" y="1015"/>
      <point x="260" y="830" type="qcurve" smooth="yes"/>
      <point x="260" y="658"/>
      <point x="356" y="618" type="qcurve"/>
      <point x="278" y="523" type="line"/>
      <point x="100" y="570"/>
      <point x="100" y="830" type="qcurve" smooth="yes"/>
      <point x="100" y="1197"/>
      <point x="416" y="1197" type="qcurve" smooth="yes"/>
      <point x="751" y="1197"/>
      <point x="751" y="880" type="qcurve" smooth="yes"/>
      <point x="751" y="861"/>
      <point x="750" y="840" type="qcurve" smooth="yes"/>
      <point x="720" y="705"/>
      <point x="641" y="517"/>
      <point x="641" y="400" type="qcurve"/>
      <point x="661" y="222"/>
      <point x="897" y="165" type="qcurve"/>
      <point x="877" y="220"/>
      <point x="877" y="259" type="qcurve" smooth="yes"/>
      <point x="877" y="344"/>
      <point x="1098" y="546"/>
      <point x="1098" y="590" type="qcurve" smooth="yes"/>
      <point x="1098" y="634"/>
      <point x="990" y="790"/>
      <point x="990" y="870" type="qcurve" smooth="yes"/>
      <point x="990" y="1200"/>
      <point x="1367" y="1200" type="qcurve" smooth="yes"/>
      <point x="1612" y="1200"/>
      <point x="1700" y="1021" type="qcurve"/>
      <point x="1791" y="1200"/>
      <point x="2047" y="1200" type="qcurve" smooth="yes"/>
      <point x="2440" y="1200"/>
      <point x="2440" y="800" type="qcurve" smooth="yes"/>
      <point x="2440" y="539"/>
      <point x="2227" y="410" type="qcurve"/>
      <point x="2152" y="520" type="line"/>
      <point x="2280" y="615"/>
      <point x="2280" y="800" type="qcurve" smooth="yes"/>
      <point x="2280" y="1030"/>
      <point x="2037" y="1030" type="qcurve" smooth="yes"/>
      <point x="1803" y="1030"/>
      <point x="1739" y="830" type="qcurve"/>
      <point x="1647" y="830" type="line"/>
      <point x="1595" y="1030"/>
    </contour>
  </outline>
</glyph>
<glyph name="uniAA0D" format="1">
  <advance width="2456"/>
  <unicode hex="AA0D"/>
  <outline>
    <contour>
      <point x="628" y="436" type="qcurve"/>
      <point x="462" y="325"/>
      <point x="462" y="210" type="qcurve" smooth="yes"/>
      <point x="462" y="151"/>
      <point x="507" y="151" type="qcurve" smooth="yes"/>
      <point x="550" y="151"/>
      <point x="611" y="319"/>
    </contour>
    <contour>
      <point x="1200" y="1030" type="qcurve" smooth="yes"/>
      <point x="1076" y="1030"/>
      <point x="1060" y="830" type="qcurve" smooth="yes"/>
      <point x="1041" y="572"/>
      <point x="796" y="491" type="qcurve"/>
      <point x="766" y="195"/>
      <point x="598" y="0"/>
      <point x="507" y="0" type="qcurve" smooth="yes"/>
      <point x="316" y="0"/>
      <point x="306" y="210" type="qcurve"/>
      <point x="316" y="420"/>
      <point x="570" y="562" type="qcurve"/>
      <point x="645" y="606" type="line"/>
      <point x="660" y="703"/>
      <point x="660" y="850" type="qcurve" smooth="yes"/>
      <point x="660" y="1030"/>
      <point x="465" y="1030" type="qcurve" smooth="yes"/>
      <point x="270" y="1030"/>
      <point x="270" y="830" type="qcurve" smooth="yes"/>
      <point x="270" y="678"/>
      <point x="410" y="637" type="qcurve"/>
      <point x="357" y="525" type="line"/>
      <point x="100" y="570"/>
      <point x="100" y="830" type="qcurve" smooth="yes"/>
      <point x="100" y="1200"/>
      <point x="460" y="1200" type="qcurve" smooth="yes"/>
      <point x="820" y="1200"/>
      <point x="820" y="850" type="qcurve" smooth="yes"/>
      <point x="820" y="749"/>
      <point x="817" y="677" type="qcurve"/>
      <point x="880" y="704"/>
      <point x="900" y="830" type="qcurve"/>
      <point x="902" y="1200"/>
      <point x="1200" y="1200" type="qcurve" smooth="yes"/>
      <point x="1473" y="1200"/>
      <point x="1473" y="870" type="qcurve" smooth="yes"/>
      <point x="1473" y="702"/>
      <point x="1243" y="480"/>
      <point x="1243" y="330" type="qcurve"/>
      <point x="1259" y="150"/>
      <point x="1441" y="150" type="qcurve" smooth="yes"/>
      <point x="1623" y="150"/>
      <point x="1623" y="362" type="qcurve"/>
      <point x="1506" y="373"/>
      <point x="1481" y="475" type="qcurve" smooth="yes"/>
      <point x="1476" y="496"/>
      <point x="1476" y="514" type="qcurve" smooth="yes"/>
      <point x="1476" y="582"/>
      <point x="1553" y="601" type="qcurve" smooth="yes"/>
      <point x="1579" y="607"/>
      <point x="1602" y="607" type="qcurve" smooth="yes"/>
      <point x="1661" y="607"/>
      <point x="1691" y="563" type="qcurve"/>
      <point x="1736" y="586"/>
      <point x="1736" y="625" type="qcurve" smooth="yes"/>
      <point x="1736" y="648"/>
      <point x="1720" y="677" type="qcurve" smooth="yes"/>
      <point x="1676" y="754"/>
      <point x="1676" y="884" type="qcurve" smooth="yes"/>
      <point x="1676" y="1200"/>
      <point x="2026" y="1200" type="qcurve" smooth="yes"/>
      <point x="2356" y="1200"/>
      <point x="2356" y="884" type="qcurve" smooth="yes"/>
      <point x="2356" y="734"/>
      <point x="2195" y="648" type="qcurve"/>
      <point x="2140" y="754" type="line"/>
      <point x="2206" y="792"/>
      <point x="2206" y="884" type="qcurve" smooth="yes"/>
      <point x="2206" y="1030"/>
      <point x="2021" y="1030" type="qcurve" smooth="yes"/>
      <point x="1836" y="1030"/>
      <point x="1836" y="884" type="qcurve" smooth="yes"/>
      <point x="1836" y="806"/>
      <point x="1894" y="672" type="qcurve" smooth="yes"/>
      <point x="1912" y="628"/>
      <point x="1912" y="587" type="qcurve" smooth="yes"/>
      <point x="1912" y="503"/>
      <point x="1831" y="431" type="qcurve"/>
      <point x="1773" y="402" type="line"/>
      <point x="1773" y="362" type="line" smooth="yes"/>
      <point x="1773" y="0"/>
      <point x="1434" y="0" type="qcurve" smooth="yes"/>
      <point x="1095" y="0"/>
      <point x="1093" y="330" type="qcurve" smooth="yes"/>
      <point x="1093" y="536"/>
      <point x="1323" y="762"/>
      <point x="1323" y="870" type="qcurve" smooth="yes"/>
      <point x="1323" y="1030"/>
    </contour>
  </outline>
</glyph>
<glyph name="uniAA0F" format="1">
  <advance width="1981"/>
  <unicode hex="AA0F"/>
  <outline>
    <contour>
      <point x="-150" y="300" type="qcurve" smooth="yes"/>
      <point x="-150" y="261"/>
      <point x="-110" y="190"/>
      <point x="-39" y="150"/>
      <point x="0" y="150" type="qcurve" smooth="yes"/>
      <point x="39" y="150"/>
      <point x="110" y="190"/>
      <point x="150" y="261"/>
      <point x="150" y="300" type="qcurve" smooth="yes"/>
      <point x="150" y="339"/>
      <point x="110" y="411"/>
      <point x="38" y="450"/>
      <point x="0" y="450" type="qcurve" smooth="yes"/>
      <point x="-38" y="450"/>
      <point x="-109" y="411"/>
      <point x="-150" y="339"/>
    </contour>
    <contour>
      <point x="760" y="300" type="qcurve" smooth="yes"/>
      <point x="760" y="261"/>
      <point x="800" y="190"/>
      <point x="871" y="150"/>
      <point x="910" y="150" type="qcurve" smooth="yes"/>
      <point x="949" y="150"/>
      <point x="1020" y="190"/>
      <point x="1060" y="261"/>
      <point x="1060" y="300" type="qcurve" smooth="yes"/>
      <point x="1060" y="339"/>
      <point x="1020" y="411"/>
      <point x="948" y="450"/>
      <point x="910" y="450" type="qcurve" smooth="yes"/>
      <point x="872" y="450"/>
      <point x="801" y="411"/>
      <point x="760" y="339"/>
    </contour>
    <contour>
      <point x="991" y="834" type="qcurve" smooth="yes"/>
      <point x="991" y="682"/>
      <point x="910" y="600" type="qcurve"/>
      <point x="985" y="600"/>
      <point x="1129" y="523"/>
      <point x="1210" y="378"/>
      <point x="1210" y="300" type="qcurve" smooth="yes"/>
      <point x="1210" y="222"/>
      <point x="1171" y="151" type="qcurve"/>
      <point x="1315" y="207"/>
      <point x="1315" y="460" type="qcurve" smooth="yes"/>
      <point x="1315" y="570"/>
      <point x="1191" y="754"/>
      <point x="1191" y="884" type="qcurve" smooth="yes"/>
      <point x="1191" y="1200"/>
      <point x="1536" y="1200" type="qcurve" smooth="yes"/>
      <point x="1881" y="1200"/>
      <point x="1881" y="884" type="qcurve" smooth="yes"/>
      <point x="1881" y="734"/>
      <point x="1724" y="655" type="qcurve"/>
      <point x="1661" y="746" type="line"/>
      <point x="1731" y="792"/>
      <point x="1731" y="884" type="qcurve" smooth="yes"/>
      <point x="1731" y="1030"/>
      <point x="1536" y="1030" type="qcurve" smooth="yes"/>
      <point x="1341" y="1030"/>
      <point x="1341" y="884" type="qcurve" smooth="yes"/>
      <point x="1341" y="806"/>
      <point x="1465" y="600"/>
      <point x="1465" y="460" type="qcurve" smooth="yes"/>
      <point x="1465" y="0"/>
      <point x="1015" y="0" type="qcurve" smooth="yes"/>
      <point x="910" y="0" type="line" smooth="yes"/>
      <point x="832" y="0"/>
      <point x="689" y="79"/>
      <point x="610" y="222"/>
      <point x="610" y="300" type="qcurve" smooth="yes"/>
      <point x="610" y="378"/>
      <point x="651" y="451" type="qcurve" smooth="yes"/>
      <point x="685" y="512"/>
      <point x="742" y="549" type="qcurve"/>
      <point x="841" y="717"/>
      <point x="841" y="834" type="qcurve" smooth="yes"/>
      <point x="841" y="1030"/>
      <point x="631" y="1030" type="qcurve" smooth="yes"/>
      <point x="421" y="1030"/>
      <point x="421" y="884" type="qcurve" smooth="yes"/>
      <point x="421" y="806"/>
      <point x="525" y="580"/>
      <point x="525" y="460" type="qcurve" smooth="yes"/>
      <point x="525" y="0"/>
      <point x="105" y="0" type="qcurve" smooth="yes"/>
      <point x="0" y="0" type="line" smooth="yes"/>
      <point x="-78" y="0"/>
      <point x="-221" y="79"/>
      <point x="-300" y="222"/>
      <point x="-300" y="300" type="qcurve" smooth="yes"/>
      <point x="-300" y="378"/>
      <point x="-219" y="523"/>
      <point x="-76" y="600"/>
      <point x="0" y="600" type="qcurve" smooth="yes"/>
      <point x="75" y="600"/>
      <point x="219" y="523"/>
      <point x="300" y="378"/>
      <point x="300" y="300" type="qcurve" smooth="yes"/>
      <point x="300" y="222"/>
      <point x="261" y="151" type="qcurve"/>
      <point x="375" y="227"/>
      <point x="375" y="460" type="qcurve" smooth="yes"/>
      <point x="375" y="570"/>
      <point x="271" y="774"/>
      <point x="271" y="884" type="qcurve" smooth="yes"/>
      <point x="271" y="1200"/>
      <point x="631" y="1200" type="qcurve" smooth="yes"/>
      <point x="991" y="1200"/>
    </contour>
  </outline>
</glyph>
<glyph name="uniAA11" format="1">
  <advance width="2400"/>
  <unicode hex="AA11"/>
  <outline>
    <contour>
      <point x="1328" y="436" type="qcurve"/>
      <point x="1162" y="325"/>
      <point x="1162" y="210" type="qcurve" smooth="yes"/>
      <point x="1162" y="151"/>
      <point x="1207" y="151" type="qcurve" smooth="yes"/>
      <point x="1250" y="151"/>
      <point x="1311" y="319"/>
    </contour>
    <contour>
      <point x="1047" y="69" type="qcurve"/>
      <point x="1010" y="121"/>
      <point x="1006" y="210" type="qcurve"/>
      <point x="1016" y="420"/>
      <point x="1270" y="562" type="qcurve"/>
      <point x="1345" y="606" type="line"/>
      <point x="1360" y="703"/>
      <point x="1360" y="800" type="qcurve" smooth="yes"/>
      <point x="1360" y="1030"/>
      <point x="1174" y="1030" type="qcurve" smooth="yes"/>
      <point x="1052" y="1030"/>
      <point x="955" y="970" type="qcurve" smooth="yes"/>
      <point x="907" y="940"/>
      <point x="819" y="940" type="qcurve" smooth="yes"/>
      <point x="733" y="940"/>
      <point x="685" y="970" type="qcurve" smooth="yes"/>
      <point x="588" y="1030"/>
      <point x="474" y="1030" type="qcurve" smooth="yes"/>
      <point x="260" y="1030"/>
      <point x="260" y="627" type="qcurve" smooth="yes"/>
      <point x="260" y="462"/>
      <point x="358" y="208"/>
      <point x="450" y="167" type="qcurve"/>
      <point x="449" y="173" type="line"/>
      <point x="459" y="224"/>
      <point x="512" y="253"/>
      <point x="541" y="259" type="qcurve" smooth="yes"/>
      <point x="551" y="261"/>
      <point x="562" y="261" type="qcurve" smooth="yes"/>
      <point x="580" y="261"/>
      <point x="600" y="255" type="qcurve" smooth="yes"/>
      <point x="630" y="244"/>
      <point x="671" y="192"/>
      <point x="677" y="159" type="qcurve" smooth="yes"/>
      <point x="679" y="147"/>
      <point x="679" y="135" type="qcurve" smooth="yes"/>
      <point x="679" y="114"/>
      <point x="673" y="90" type="qcurve" smooth="yes"/>
      <point x="662" y="53"/>
      <point x="614" y="9"/>
      <point x="584" y="3" type="qcurve" smooth="yes"/>
      <point x="550" y="-1"/>
      <point x="518" y="-1" type="qcurve" smooth="yes"/>
      <point x="298" y="-1"/>
      <point x="186" y="230" type="qcurve" smooth="yes"/>
      <point x="100" y="408"/>
      <point x="100" y="627" type="qcurve" smooth="yes"/>
      <point x="100" y="1159"/>
      <point x="423" y="1196" type="qcurve" smooth="yes"/>
      <point x="448" y="1200"/>
      <point x="464" y="1200" type="qcurve" smooth="yes"/>
      <point x="601" y="1200"/>
      <point x="711" y="1130" type="qcurve" smooth="yes"/>
      <point x="765" y="1095"/>
      <point x="819" y="1095" type="qcurve" smooth="yes"/>
      <point x="874" y="1095"/>
      <point x="929" y="1130" type="qcurve" smooth="yes"/>
      <point x="1039" y="1200"/>
      <point x="1174" y="1200" type="qcurve" smooth="yes"/>
      <point x="1520" y="1200"/>
      <point x="1520" y="800" type="qcurve" smooth="yes"/>
      <point x="1520" y="749"/>
      <point x="1517" y="677" type="qcurve"/>
      <point x="1580" y="704"/>
      <point x="1600" y="830" type="qcurve"/>
      <point x="1602" y="1200"/>
      <point x="1950" y="1200" type="qcurve" smooth="yes"/>
      <point x="2300" y="1200"/>
      <point x="2300" y="870" type="qcurve" smooth="yes"/>
      <point x="2300" y="712"/>
      <point x="2097" y="587" type="qcurve"/>
      <point x="2018" y="685" type="line"/>
      <point x="2140" y="752"/>
      <point x="2140" y="870" type="qcurve" smooth="yes"/>
      <point x="2140" y="1030"/>
      <point x="1950" y="1030" type="qcurve" smooth="yes"/>
      <point x="1776" y="1030"/>
      <point x="1760" y="830" type="qcurve" smooth="yes"/>
      <point x="1741" y="572"/>
      <point x="1496" y="491" type="qcurve"/>
      <point x="1466" y="195"/>
      <point x="1298" y="0"/>
      <point x="1207" y="0" type="qcurve" smooth="yes"/>
      <point x="1197" y="0" type="line"/>
      <point x="1055" y="-115"/>
      <point x="1055" y="-200" type="qcurve" smooth="yes"/>
      <point x="1055" y="-260"/>
      <point x="1156" y="-260" type="qcurve" smooth="yes"/>
      <point x="1267" y="-260"/>
      <point x="1304" y="-150" type="qcurve"/>
      <point x="1361" y="0"/>
      <point x="1533" y="0" type="qcurve" smooth="yes"/>
      <point x="1725" y="0"/>
      <point x="1725" y="-164" type="qcurve" smooth="yes"/>
      <point x="1725" y="-268"/>
      <point x="1592" y="-394" type="qcurve"/>
      <point x="1492" y="-326" type="line"/>
      <point x="1585" y="-228"/>
      <point x="1585" y="-174" type="qcurve" smooth="yes"/>
      <point x="1585" y="-120"/>
      <point x="1533" y="-120" type="qcurve" smooth="yes"/>
      <point x="1450" y="-120"/>
      <point x="1430" y="-189" type="qcurve"/>
      <point x="1352" y="-400"/>
      <point x="1156" y="-400" type="qcurve" smooth="yes"/>
      <point x="905" y="-400"/>
      <point x="905" y="-200" type="qcurve" smooth="yes"/>
      <point x="905" y="-67"/>
    </contour>
  </outline>
</glyph>
<glyph name="uniAA12" format="1">
  <advance width="2400"/>
  <unicode hex="AA12"/>
  <outline>
    <contour>
      <point x="1328" y="436" type="qcurve"/>
      <point x="1162" y="325"/>
      <point x="1162" y="210" type="qcurve" smooth="yes"/>
      <point x="1162" y="151"/>
      <point x="1207" y="151" type="qcurve" smooth="yes"/>
      <point x="1250" y="151"/>
      <point x="1311" y="319"/>
    </contour>
    <contour>
      <point x="1325" y="43" type="qcurve"/>
      <point x="1175" y="-125"/>
      <point x="1175" y="-200" type="qcurve" smooth="yes"/>
      <point x="1175" y="-260"/>
      <point x="1276" y="-260" type="qcurve" smooth="yes"/>
      <point x="1387" y="-260"/>
      <point x="1424" y="-150" type="qcurve"/>
      <point x="1481" y="0"/>
      <point x="1653" y="0" type="qcurve" smooth="yes"/>
      <point x="1845" y="0"/>
      <point x="1845" y="-164" type="qcurve" smooth="yes"/>
      <point x="1845" y="-268"/>
      <point x="1712" y="-394" type="qcurve"/>
      <point x="1612" y="-326" type="line"/>
      <point x="1705" y="-228"/>
      <point x="1705" y="-174" type="qcurve" smooth="yes"/>
      <point x="1705" y="-120"/>
      <point x="1653" y="-120" type="qcurve" smooth="yes"/>
      <point x="1570" y="-120"/>
      <point x="1550" y="-189" type="qcurve"/>
      <point x="1472" y="-400"/>
      <point x="1276" y="-400" type="qcurve" smooth="yes"/>
      <point x="1025" y="-400"/>
      <point x="1025" y="-200" type="qcurve" smooth="yes"/>
      <point x="1025" y="-92"/>
      <point x="1119" y="18" type="qcurve"/>
      <point x="1004" y="-21"/>
      <point x="971" y="-67" type="qcurve" smooth="yes"/>
      <point x="931" y="-122"/>
      <point x="931" y="-225" type="qcurve" smooth="yes"/>
      <point x="931" y="-328"/>
      <point x="826" y="-400"/>
      <point x="783" y="-400" type="qcurve" smooth="yes"/>
      <point x="741" y="-400"/>
      <point x="716" y="-394" type="qcurve"/>
      <point x="700" y="-294" type="line"/>
      <point x="755" y="-275"/>
      <point x="790" y="-197"/>
      <point x="790" y="-128" type="qcurve" smooth="yes"/>
      <point x="790" y="-60"/>
      <point x="840" y="8" type="qcurve" smooth="yes"/>
      <point x="885" y="69"/>
      <point x="1022" y="117" type="qcurve"/>
      <point x="1008" y="157"/>
      <point x="1006" y="210" type="qcurve"/>
      <point x="1016" y="420"/>
      <point x="1270" y="562" type="qcurve"/>
      <point x="1345" y="606" type="line"/>
      <point x="1360" y="703"/>
      <point x="1360" y="800" type="qcurve" smooth="yes"/>
      <point x="1360" y="1030"/>
      <point x="1174" y="1030" type="qcurve" smooth="yes"/>
      <point x="1052" y="1030"/>
      <point x="955" y="970" type="qcurve" smooth="yes"/>
      <point x="907" y="940"/>
      <point x="819" y="940" type="qcurve" smooth="yes"/>
      <point x="733" y="940"/>
      <point x="685" y="970" type="qcurve" smooth="yes"/>
      <point x="588" y="1030"/>
      <point x="474" y="1030" type="qcurve" smooth="yes"/>
      <point x="260" y="1030"/>
      <point x="260" y="627" type="qcurve" smooth="yes"/>
      <point x="260" y="462"/>
      <point x="358" y="208"/>
      <point x="450" y="167" type="qcurve"/>
      <point x="449" y="173" type="line"/>
      <point x="459" y="224"/>
      <point x="512" y="253"/>
      <point x="541" y="259" type="qcurve" smooth="yes"/>
      <point x="551" y="261"/>
      <point x="562" y="261" type="qcurve" smooth="yes"/>
      <point x="580" y="261"/>
      <point x="600" y="255" type="qcurve" smooth="yes"/>
      <point x="630" y="244"/>
      <point x="671" y="192"/>
      <point x="677" y="159" type="qcurve" smooth="yes"/>
      <point x="679" y="147"/>
      <point x="679" y="135" type="qcurve" smooth="yes"/>
      <point x="679" y="114"/>
      <point x="673" y="90" type="qcurve" smooth="yes"/>
      <point x="662" y="53"/>
      <point x="614" y="9"/>
      <point x="584" y="3" type="qcurve" smooth="yes"/>
      <point x="550" y="-1"/>
      <point x="518" y="-1" type="qcurve" smooth="yes"/>
      <point x="298" y="-1"/>
      <point x="186" y="230" type="qcurve" smooth="yes"/>
      <point x="100" y="408"/>
      <point x="100" y="627" type="qcurve" smooth="yes"/>
      <point x="100" y="1159"/>
      <point x="423" y="1196" type="qcurve" smooth="yes"/>
      <point x="448" y="1200"/>
      <point x="464" y="1200" type="qcurve" smooth="yes"/>
      <point x="601" y="1200"/>
      <point x="711" y="1130" type="qcurve" smooth="yes"/>
      <point x="765" y="1095"/>
      <point x="819" y="1095" type="qcurve" smooth="yes"/>
      <point x="874" y="1095"/>
      <point x="929" y="1130" type="qcurve" smooth="yes"/>
      <point x="1039" y="1200"/>
      <point x="1174" y="1200" type="qcurve" smooth="yes"/>
      <point x="1520" y="1200"/>
      <point x="1520" y="800" type="qcurve" smooth="yes"/>
      <point x="1520" y="749"/>
      <point x="1517" y="677" type="qcurve"/>
      <point x="1580" y="704"/>
      <point x="1600" y="830" type="qcurve"/>
      <point x="1602" y="1200"/>
      <point x="1950" y="1200" type="qcurve" smooth="yes"/>
      <point x="2300" y="1200"/>
      <point x="2300" y="870" type="qcurve" smooth="yes"/>
      <point x="2300" y="712"/>
      <point x="2097" y="587" type="qcurve"/>
      <point x="2018" y="685" type="line"/>
      <point x="2140" y="752"/>
      <point x="2140" y="870" type="qcurve" smooth="yes"/>
      <point x="2140" y="1030"/>
      <point x="1950" y="1030" type="qcurve" smooth="yes"/>
      <point x="1776" y="1030"/>
      <point x="1760" y="830" type="qcurve" smooth="yes"/>
      <point x="1741" y="572"/>
      <point x="1496" y="491" type="qcurve"/>
      <point x="1466" y="195"/>
      <point x="1382" y="98" type="qcurve" smooth="yes"/>
      <point x="1354" y="65"/>
    </contour>
  </outline>
</glyph>
<glyph name="uniAA15" format="1">
  <advance width="1771"/>
  <unicode hex="AA15"/>
  <outline>
    <contour>
      <point x="797" y="11" type="qcurve"/>
      <point x="773" y="0" type="line"/>
      <point x="661" y="95" type="line"/>
      <point x="705" y="169"/>
      <point x="728" y="257" type="qcurve" smooth="yes"/>
      <point x="734" y="280"/>
      <point x="734" y="302" type="qcurve" smooth="yes"/>
      <point x="734" y="432"/>
      <point x="519" y="511" type="qcurve"/>
      <point x="515" y="610" type="line" smooth="yes"/>
      <point x="515" y="611"/>
      <point x="516" y="612" type="qcurve" smooth="yes"/>
      <point x="660" y="711"/>
      <point x="660" y="850" type="qcurve" smooth="yes"/>
      <point x="660" y="1030"/>
      <point x="465" y="1030" type="qcurve" smooth="yes"/>
      <point x="270" y="1030"/>
      <point x="270" y="830" type="qcurve" smooth="yes"/>
      <point x="270" y="678"/>
      <point x="410" y="637" type="qcurve"/>
      <point x="357" y="525" type="line"/>
      <point x="100" y="570"/>
      <point x="100" y="830" type="qcurve" smooth="yes"/>
      <point x="100" y="1200"/>
      <point x="460" y="1200" type="qcurve" smooth="yes"/>
      <point x="820" y="1200"/>
      <point x="820" y="850" type="qcurve" smooth="yes"/>
      <point x="820" y="705"/>
      <point x="714" y="577" type="qcurve"/>
      <point x="878" y="490"/>
      <point x="878" y="319" type="qcurve" smooth="yes"/>
      <point x="878" y="234"/>
      <point x="853" y="202" type="qcurve"/>
      <point x="1075" y="291"/>
      <point x="1075" y="460" type="qcurve" smooth="yes"/>
      <point x="1075" y="570"/>
      <point x="981" y="754"/>
      <point x="981" y="884" type="qcurve" smooth="yes"/>
      <point x="981" y="1200"/>
      <point x="1326" y="1200" type="qcurve" smooth="yes"/>
      <point x="1671" y="1200"/>
      <point x="1671" y="884" type="qcurve" smooth="yes"/>
      <point x="1671" y="734"/>
      <point x="1514" y="655" type="qcurve"/>
      <point x="1451" y="746" type="line"/>
      <point x="1521" y="792"/>
      <point x="1521" y="884" type="qcurve" smooth="yes"/>
      <point x="1521" y="1030"/>
      <point x="1326" y="1030" type="qcurve" smooth="yes"/>
      <point x="1131" y="1030"/>
      <point x="1131" y="884" type="qcurve" smooth="yes"/>
      <point x="1131" y="806"/>
      <point x="1225" y="600"/>
      <point x="1225" y="460" type="qcurve" smooth="yes"/>
      <point x="1225" y="147"/>
    </contour>
  </outline>
</glyph>
<glyph name="uniAA16" format="1">
  <advance width="1721"/>
  <unicode hex="AA16"/>
  <outline>
    <contour>
      <point x="999" y="301"/>
      <point x="999" y="223" type="qcurve" smooth="yes"/>
      <point x="999" y="117"/>
      <point x="1026" y="92" type="qcurve"/>
      <point x="975" y="0" type="line"/>
      <point x="501" y="70"/>
      <point x="481" y="400" type="qcurve"/>
      <point x="481" y="513"/>
      <point x="560" y="711"/>
      <point x="590" y="840" type="qcurve" smooth="yes"/>
      <point x="592" y="856"/>
      <point x="592" y="871" type="qcurve" smooth="yes"/>
      <point x="592" y="1018"/>
      <point x="425" y="1029" type="qcurve"/>
      <point x="260" y="1015"/>
      <point x="260" y="830" type="qcurve" smooth="yes"/>
      <point x="260" y="658"/>
      <point x="356" y="618" type="qcurve"/>
      <point x="278" y="523" type="line"/>
      <point x="100" y="570"/>
      <point x="100" y="830" type="qcurve" smooth="yes"/>
      <point x="100" y="1197"/>
      <point x="416" y="1197" type="qcurve" smooth="yes"/>
      <point x="751" y="1197"/>
      <point x="751" y="880" type="qcurve" smooth="yes"/>
      <point x="751" y="861"/>
      <point x="750" y="840" type="qcurve" smooth="yes"/>
      <point x="720" y="705"/>
      <point x="641" y="517"/>
      <point x="641" y="400" type="qcurve"/>
      <point x="661" y="222"/>
      <point x="847" y="165" type="qcurve"/>
      <point x="838" y="204"/>
      <point x="838" y="240" type="qcurve" smooth="yes"/>
      <point x="838" y="346"/>
      <point x="918" y="419" type="qcurve" smooth="yes"/>
      <point x="1025" y="516"/>
      <point x="1025" y="600" type="qcurve" smooth="yes"/>
      <point x="1025" y="680"/>
      <point x="931" y="824"/>
      <point x="931" y="924" type="qcurve" smooth="yes"/>
      <point x="931" y="1200"/>
      <point x="1276" y="1200" type="qcurve" smooth="yes"/>
      <point x="1621" y="1200"/>
      <point x="1621" y="884" type="qcurve" smooth="yes"/>
      <point x="1621" y="734"/>
      <point x="1464" y="655" type="qcurve"/>
      <point x="1401" y="746" type="line"/>
      <point x="1471" y="792"/>
      <point x="1471" y="884" type="qcurve" smooth="yes"/>
      <point x="1471" y="1030"/>
      <point x="1276" y="1030" type="qcurve" smooth="yes"/>
      <point x="1081" y="1030"/>
      <point x="1081" y="924" type="qcurve" smooth="yes"/>
      <point x="1081" y="856"/>
      <point x="1175" y="710"/>
      <point x="1175" y="600" type="qcurve" smooth="yes"/>
      <point x="1175" y="472"/>
    </contour>
  </outline>
</glyph>
<glyph name="uniAA18" format="1">
  <advance width="1760"/>
  <unicode hex="AA18"/>
  <outline>
    <contour>
      <point x="628" y="436" type="qcurve"/>
      <point x="462" y="325"/>
      <point x="462" y="210" type="qcurve" smooth="yes"/>
      <point x="462" y="151"/>
      <point x="507" y="151" type="qcurve" smooth="yes"/>
      <point x="550" y="151"/>
      <point x="611" y="319"/>
    </contour>
    <contour>
      <point x="990" y="142" type="line" smooth="yes"/>
      <point x="856" y="1"/>
      <point x="856" y="-91" type="qcurve" smooth="yes"/>
      <point x="856" y="-107"/>
      <point x="860" y="-121" type="qcurve" smooth="yes"/>
      <point x="892" y="-241"/>
      <point x="946" y="-241" type="qcurve" smooth="yes"/>
      <point x="953" y="-241"/>
      <point x="960" y="-239" type="qcurve" smooth="yes"/>
      <point x="1073" y="-209"/>
      <point x="1220" y="192"/>
      <point x="1350" y="227" type="qcurve" smooth="yes"/>
      <point x="1390" y="237"/>
      <point x="1423" y="237" type="qcurve" smooth="yes"/>
      <point x="1523" y="237"/>
      <point x="1563" y="141" type="qcurve" smooth="yes"/>
      <point x="1578" y="105"/>
      <point x="1587" y="72" type="qcurve" smooth="yes"/>
      <point x="1601" y="19"/>
      <point x="1601" y="-37" type="qcurve" smooth="yes"/>
      <point x="1601" y="-124"/>
      <point x="1567" y="-219" type="qcurve"/>
      <point x="1435" y="-205" type="line"/>
      <point x="1462" y="-128"/>
      <point x="1462" y="-65" type="qcurve" smooth="yes"/>
      <point x="1462" y="-32"/>
      <point x="1454" y="-2" type="qcurve"/>
      <point x="1454" y="0" type="line"/>
      <point x="1440" y="52"/>
      <point x="1398" y="52" type="qcurve" smooth="yes"/>
      <point x="1388" y="52"/>
      <point x="1376" y="49" type="qcurve" smooth="yes"/>
      <point x="1369" y="47"/>
      <point x="1362" y="44" type="qcurve" smooth="yes"/>
      <point x="1297" y="16"/>
      <point x="1179" y="-346"/>
      <point x="1001" y="-394" type="qcurve" smooth="yes"/>
      <point x="965" y="-403"/>
      <point x="934" y="-403" type="qcurve" smooth="yes"/>
      <point x="771" y="-403"/>
      <point x="707" y="-161" type="qcurve" smooth="yes"/>
      <point x="697" y="-125"/>
      <point x="697" y="-87" type="qcurve" smooth="yes"/>
      <point x="697" y="87"/>
      <point x="900" y="292" type="qcurve"/>
      <point x="863" y="375"/>
      <point x="788" y="428" type="qcurve"/>
      <point x="759" y="187"/>
      <point x="682" y="98" type="qcurve" smooth="yes"/>
      <point x="598" y="0"/>
      <point x="507" y="0" type="qcurve" smooth="yes"/>
      <point x="316" y="0"/>
      <point x="306" y="210" type="qcurve"/>
      <point x="316" y="420"/>
      <point x="570" y="562" type="qcurve"/>
      <point x="645" y="606" type="line"/>
      <point x="660" y="703"/>
      <point x="660" y="800" type="qcurve" smooth="yes"/>
      <point x="660" y="1030"/>
      <point x="465" y="1030" type="qcurve" smooth="yes"/>
      <point x="270" y="1030"/>
      <point x="270" y="830" type="qcurve" smooth="yes"/>
      <point x="270" y="678"/>
      <point x="410" y="637" type="qcurve"/>
      <point x="357" y="525" type="line"/>
      <point x="100" y="570"/>
      <point x="100" y="830" type="qcurve" smooth="yes"/>
      <point x="100" y="1200"/>
      <point x="460" y="1200" type="qcurve" smooth="yes"/>
      <point x="820" y="1200"/>
      <point x="820" y="800" type="qcurve" smooth="yes"/>
      <point x="820" y="761"/>
      <point x="804" y="588" type="qcurve"/>
      <point x="868" y="576"/>
      <point x="914" y="524" type="qcurve" smooth="yes"/>
      <point x="971" y="459"/>
      <point x="1003" y="379" type="qcurve"/>
      <point x="1024" y="418"/>
      <point x="1024" y="439" type="qcurve" smooth="yes"/>
      <point x="1024" y="484"/>
      <point x="1002" y="529" type="qcurve" smooth="yes"/>
      <point x="960" y="626"/>
      <point x="960" y="790" type="qcurve" smooth="yes"/>
      <point x="960" y="1200"/>
      <point x="1310" y="1200" type="qcurve" smooth="yes"/>
      <point x="1660" y="1200"/>
      <point x="1660" y="870" type="qcurve" smooth="yes"/>
      <point x="1660" y="692"/>
      <point x="1516" y="562" type="qcurve"/>
      <point x="1410" y="637" type="line"/>
      <point x="1490" y="712"/>
      <point x="1490" y="870" type="qcurve" smooth="yes"/>
      <point x="1490" y="1030"/>
      <point x="1310" y="1030" type="qcurve" smooth="yes"/>
      <point x="1120" y="1030"/>
      <point x="1120" y="790" type="qcurve" smooth="yes"/>
      <point x="1120" y="628"/>
      <point x="1144" y="573" type="qcurve" smooth="yes"/>
      <point x="1171" y="503"/>
      <point x="1171" y="448" type="qcurve" smooth="yes"/>
      <point x="1171" y="427"/>
      <point x="1168" y="409" type="qcurve" smooth="yes"/>
      <point x="1146" y="305"/>
      <point x="1068" y="224" type="qcurve" smooth="yes"/>
    </contour>
  </outline>
</glyph>
<glyph name="uniAA19" format="1">
  <advance width="1760"/>
  <unicode hex="AA19"/>
  <outline>
    <contour>
      <point x="628" y="436" type="qcurve"/>
      <point x="462" y="325"/>
      <point x="462" y="210" type="qcurve" smooth="yes"/>
      <point x="462" y="151"/>
      <point x="507" y="151" type="qcurve" smooth="yes"/>
      <point x="550" y="151"/>
      <point x="611" y="319"/>
    </contour>
    <contour>
      <point x="374" y="40" type="qcurve"/>
      <point x="312" y="92"/>
      <point x="306" y="210" type="qcurve"/>
      <point x="316" y="420"/>
      <point x="570" y="562" type="qcurve"/>
      <point x="645" y="606" type="line"/>
      <point x="660" y="703"/>
      <point x="660" y="800" type="qcurve" smooth="yes"/>
      <point x="660" y="1030"/>
      <point x="465" y="1030" type="qcurve" smooth="yes"/>
      <point x="270" y="1030"/>
      <point x="270" y="830" type="qcurve" smooth="yes"/>
      <point x="270" y="678"/>
      <point x="410" y="637" type="qcurve"/>
      <point x="357" y="525" type="line"/>
      <point x="100" y="570"/>
      <point x="100" y="830" type="qcurve" smooth="yes"/>
      <point x="100" y="1200"/>
      <point x="460" y="1200" type="qcurve" smooth="yes"/>
      <point x="820" y="1200"/>
      <point x="820" y="800" type="qcurve" smooth="yes"/>
      <point x="820" y="761"/>
      <point x="804" y="588" type="qcurve"/>
      <point x="868" y="576"/>
      <point x="914" y="524" type="qcurve" smooth="yes"/>
      <point x="971" y="459"/>
      <point x="1003" y="379" type="qcurve"/>
      <point x="1024" y="418"/>
      <point x="1024" y="439" type="qcurve" smooth="yes"/>
      <point x="1024" y="484"/>
      <point x="1002" y="529" type="qcurve" smooth="yes"/>
      <point x="960" y="626"/>
      <point x="960" y="790" type="qcurve" smooth="yes"/>
      <point x="960" y="1200"/>
      <point x="1310" y="1200" type="qcurve" smooth="yes"/>
      <point x="1660" y="1200"/>
      <point x="1660" y="870" type="qcurve" smooth="yes"/>
      <point x="1660" y="692"/>
      <point x="1516" y="562" type="qcurve"/>
      <point x="1410" y="637" type="line"/>
      <point x="1490" y="712"/>
      <point x="1490" y="870" type="qcurve" smooth="yes"/>
      <point x="1490" y="1030"/>
      <point x="1310" y="1030" type="qcurve" smooth="yes"/>
      <point x="1120" y="1030"/>
      <point x="1120" y="790" type="qcurve" smooth="yes"/>
      <point x="1120" y="628"/>
      <point x="1144" y="573" type="qcurve" smooth="yes"/>
      <point x="1171" y="503"/>
      <point x="1171" y="448" type="qcurve" smooth="yes"/>
      <point x="1171" y="427"/>
      <point x="1168" y="409" type="qcurve" smooth="yes"/>
      <point x="1142" y="284"/>
      <point x="1016" y="192" type="qcurve"/>
      <point x="919" y="241" type="line"/>
      <point x="885" y="359"/>
      <point x="788" y="428" type="qcurve"/>
      <point x="759" y="187"/>
      <point x="682" y="98" type="qcurve" smooth="yes"/>
      <point x="626" y="33"/>
      <point x="567" y="11" type="qcurve"/>
      <point x="411" y="-111"/>
      <point x="411" y="-200" type="qcurve" smooth="yes"/>
      <point x="411" y="-260"/>
      <point x="512" y="-260" type="qcurve" smooth="yes"/>
      <point x="623" y="-260"/>
      <point x="660" y="-150" type="qcurve"/>
      <point x="717" y="0"/>
      <point x="889" y="0" type="qcurve" smooth="yes"/>
      <point x="1081" y="0"/>
      <point x="1081" y="-164" type="qcurve" smooth="yes"/>
      <point x="1081" y="-268"/>
      <point x="948" y="-394" type="qcurve"/>
      <point x="848" y="-326" type="line"/>
      <point x="941" y="-228"/>
      <point x="941" y="-174" type="qcurve" smooth="yes"/>
      <point x="941" y="-120"/>
      <point x="889" y="-120" type="qcurve" smooth="yes"/>
      <point x="806" y="-120"/>
      <point x="786" y="-189" type="qcurve"/>
      <point x="708" y="-400"/>
      <point x="512" y="-400" type="qcurve" smooth="yes"/>
      <point x="261" y="-400"/>
      <point x="261" y="-200" type="qcurve" smooth="yes"/>
      <point x="261" y="-82"/>
    </contour>
  </outline>
</glyph>
<glyph name="uniAA22" format="1">
  <advance width="2510"/>
  <unicode hex="AA22"/>
  <outline>
    <contour>
      <point x="1084" y="593" type="qcurve" smooth="yes"/>
      <point x="1093" y="542"/>
      <point x="1093" y="493" type="qcurve" smooth="yes"/>
      <point x="1093" y="443"/>
      <point x="1084" y="396" type="qcurve" smooth="yes"/>
      <point x="1064" y="302"/>
      <point x="1014" y="216" type="qcurve" smooth="yes"/>
      <point x="922" y="55"/>
      <point x="584" y="0" type="qcurve"/>
      <point x="472" y="0" type="line"/>
      <point x="445" y="121" type="line"/>
      <point x="545" y="239"/>
      <point x="590" y="579"/>
      <point x="600" y="790" type="qcurve"/>
      <point x="590" y="1030"/>
      <point x="420" y="1030" type="qcurve" smooth="yes"/>
      <point x="250" y="1030"/>
      <point x="250" y="830" type="qcurve" smooth="yes"/>
      <point x="250" y="658"/>
      <point x="353" y="615" type="qcurve"/>
      <point x="296" y="500" type="line"/>
      <point x="100" y="570"/>
      <point x="100" y="830" type="qcurve" smooth="yes"/>
      <point x="100" y="1200"/>
      <point x="430" y="1200" type="qcurve" smooth="yes"/>
      <point x="740" y="1200"/>
      <point x="750" y="790" type="qcurve"/>
      <point x="750" y="340"/>
      <point x="665" y="156" type="qcurve"/>
      <point x="833" y="183"/>
      <point x="893" y="295" type="qcurve" smooth="yes"/>
      <point x="942" y="386"/>
      <point x="942" y="493" type="qcurve" smooth="yes"/>
      <point x="942" y="533"/>
      <point x="935" y="575" type="qcurve" smooth="yes"/>
      <point x="910" y="730"/>
      <point x="910" y="800" type="qcurve" smooth="yes"/>
      <point x="910" y="1200"/>
      <point x="1287" y="1200" type="qcurve" smooth="yes"/>
      <point x="1542" y="1200"/>
      <point x="1630" y="1021" type="qcurve"/>
      <point x="1721" y="1200"/>
      <point x="1997" y="1200" type="qcurve" smooth="yes"/>
      <point x="2410" y="1200"/>
      <point x="2410" y="800" type="qcurve" smooth="yes"/>
      <point x="2410" y="539"/>
      <point x="2197" y="410" type="qcurve"/>
      <point x="2122" y="520" type="line"/>
      <point x="2250" y="615"/>
      <point x="2250" y="800" type="qcurve" smooth="yes"/>
      <point x="2250" y="1030"/>
      <point x="1987" y="1030" type="qcurve" smooth="yes"/>
      <point x="1733" y="1030"/>
      <point x="1669" y="830" type="qcurve"/>
      <point x="1577" y="830" type="line"/>
      <point x="1525" y="1030"/>
      <point x="1303" y="1030" type="qcurve" smooth="yes"/>
      <point x="1070" y="1030"/>
      <point x="1070" y="800" type="qcurve" smooth="yes"/>
      <point x="1070" y="698"/>
    </contour>
  </outline>
</glyph>
<glyph name="uniAA25" format="1">
  <advance width="1721"/>
  <unicode hex="AA25"/>
  <outline>
    <contour>
      <point x="1265" y="290" type="qcurve"/>
      <point x="1221" y="213"/>
      <point x="1221" y="96" type="qcurve" smooth="yes"/>
      <point x="1221" y="64"/>
      <point x="1224" y="30" type="qcurve" smooth="yes"/>
      <point x="1223" y="17"/>
      <point x="1223" y="5" type="qcurve" smooth="yes"/>
      <point x="1223" y="-101"/>
      <point x="1288" y="-106" type="qcurve"/>
      <point x="1293" y="-106" type="line" smooth="yes"/>
      <point x="1344" y="-106"/>
      <point x="1344" y="-3" type="qcurve" smooth="yes"/>
      <point x="1344" y="28"/>
      <point x="1339" y="69" type="qcurve" smooth="yes"/>
      <point x="1314" y="218"/>
    </contour>
    <contour>
      <point x="1174" y="574" type="qcurve"/>
      <point x="1210" y="546"/>
      <point x="1238" y="508" type="qcurve"/>
      <point x="1276" y="568" type="line"/>
      <point x="1371" y="492" type="line"/>
      <point x="1332" y="424" type="line"/>
      <point x="1461" y="245"/>
      <point x="1486" y="88" type="qcurve" smooth="yes"/>
      <point x="1495" y="32"/>
      <point x="1495" y="-15" type="qcurve" smooth="yes"/>
      <point x="1495" y="-202"/>
      <point x="1352" y="-240" type="qcurve" smooth="yes"/>
      <point x="1330" y="-245"/>
      <point x="1305" y="-248" type="qcurve" smooth="yes"/>
      <point x="1296" y="-249"/>
      <point x="1287" y="-249" type="qcurve" smooth="yes"/>
      <point x="1100" y="-249"/>
      <point x="1078" y="11" type="qcurve"/>
      <point x="1078" y="29" type="line" smooth="yes"/>
      <point x="1078" y="249"/>
      <point x="1172" y="400" type="qcurve"/>
      <point x="1151" y="424"/>
      <point x="1130" y="439" type="qcurve"/>
      <point x="1112" y="411"/>
      <point x="1087" y="387" type="qcurve" smooth="yes"/>
      <point x="999" y="301"/>
      <point x="999" y="223" type="qcurve" smooth="yes"/>
      <point x="999" y="117"/>
      <point x="1026" y="92" type="qcurve"/>
      <point x="975" y="0" type="line"/>
      <point x="501" y="70"/>
      <point x="481" y="400" type="qcurve"/>
      <point x="481" y="513"/>
      <point x="560" y="711"/>
      <point x="590" y="840" type="qcurve" smooth="yes"/>
      <point x="592" y="856"/>
      <point x="592" y="871" type="qcurve" smooth="yes"/>
      <point x="592" y="1018"/>
      <point x="425" y="1029" type="qcurve"/>
      <point x="260" y="1015"/>
      <point x="260" y="830" type="qcurve" smooth="yes"/>
      <point x="260" y="658"/>
      <point x="356" y="618" type="qcurve"/>
      <point x="278" y="523" type="line"/>
      <point x="100" y="570"/>
      <point x="100" y="830" type="qcurve" smooth="yes"/>
      <point x="100" y="1197"/>
      <point x="416" y="1197" type="qcurve" smooth="yes"/>
      <point x="751" y="1197"/>
      <point x="751" y="880" type="qcurve" smooth="yes"/>
      <point x="751" y="861"/>
      <point x="750" y="840" type="qcurve" smooth="yes"/>
      <point x="720" y="705"/>
      <point x="641" y="517"/>
      <point x="641" y="400" type="qcurve"/>
      <point x="661" y="222"/>
      <point x="847" y="165" type="qcurve"/>
      <point x="838" y="204"/>
      <point x="838" y="240" type="qcurve" smooth="yes"/>
      <point x="838" y="346"/>
      <point x="918" y="419" type="qcurve" smooth="yes"/>
      <point x="1025" y="516"/>
      <point x="1025" y="600" type="qcurve" smooth="yes"/>
      <point x="1025" y="680"/>
      <point x="931" y="824"/>
      <point x="931" y="924" type="qcurve" smooth="yes"/>
      <point x="931" y="1200"/>
      <point x="1276" y="1200" type="qcurve" smooth="yes"/>
      <point x="1621" y="1200"/>
      <point x="1621" y="884" type="qcurve" smooth="yes"/>
      <point x="1621" y="734"/>
      <point x="1464" y="655" type="qcurve"/>
      <point x="1401" y="746" type="line"/>
      <point x="1471" y="792"/>
      <point x="1471" y="884" type="qcurve" smooth="yes"/>
      <point x="1471" y="1030"/>
      <point x="1276" y="1030" type="qcurve" smooth="yes"/>
      <point x="1081" y="1030"/>
      <point x="1081" y="924" type="qcurve" smooth="yes"/>
      <point x="1081" y="856"/>
      <point x="1175" y="710"/>
      <point x="1175" y="600" type="qcurve" smooth="yes"/>
      <point x="1175" y="587"/>
    </contour>
  </outline>
</glyph>
<glyph name="uniAA26" format="1">
  <advance width="1810"/>
  <unicode hex="AA26"/>
  <outline>
    <contour>
      <point x="466" y="1030" type="qcurve" smooth="yes"/>
      <point x="250" y="1030"/>
      <point x="250" y="830" type="qcurve" smooth="yes"/>
      <point x="250" y="783"/>
      <point x="257" y="783" type="qcurve" smooth="yes"/>
      <point x="260" y="783"/>
      <point x="263" y="788" type="qcurve" smooth="yes"/>
      <point x="275" y="806"/>
      <point x="325" y="828"/>
      <point x="357" y="828" type="qcurve" smooth="yes"/>
      <point x="388" y="828"/>
      <point x="448" y="796"/>
      <point x="482" y="736"/>
      <point x="482" y="703" type="qcurve" smooth="yes"/>
      <point x="482" y="670"/>
      <point x="449" y="611"/>
      <point x="389" y="578"/>
      <point x="357" y="578" type="qcurve" smooth="yes"/>
      <point x="100" y="578"/>
      <point x="100" y="830" type="qcurve" smooth="yes"/>
      <point x="100" y="1200"/>
      <point x="470" y="1200" type="qcurve" smooth="yes"/>
      <point x="840" y="1200"/>
      <point x="840" y="880" type="qcurve" smooth="yes"/>
      <point x="840" y="861"/>
      <point x="839" y="840" type="qcurve" smooth="yes"/>
      <point x="809" y="705"/>
      <point x="730" y="517"/>
      <point x="730" y="400" type="qcurve"/>
      <point x="750" y="222"/>
      <point x="936" y="165" type="qcurve"/>
      <point x="927" y="204"/>
      <point x="927" y="240" type="qcurve" smooth="yes"/>
      <point x="927" y="346"/>
      <point x="1007" y="419" type="qcurve" smooth="yes"/>
      <point x="1114" y="516"/>
      <point x="1114" y="600" type="qcurve" smooth="yes"/>
      <point x="1114" y="680"/>
      <point x="1020" y="824"/>
      <point x="1020" y="924" type="qcurve" smooth="yes"/>
      <point x="1020" y="1200"/>
      <point x="1365" y="1200" type="qcurve" smooth="yes"/>
      <point x="1710" y="1200"/>
      <point x="1710" y="884" type="qcurve" smooth="yes"/>
      <point x="1710" y="734"/>
      <point x="1553" y="655" type="qcurve"/>
      <point x="1490" y="746" type="line"/>
      <point x="1560" y="792"/>
      <point x="1560" y="884" type="qcurve" smooth="yes"/>
      <point x="1560" y="1030"/>
      <point x="1365" y="1030" type="qcurve" smooth="yes"/>
      <point x="1170" y="1030"/>
      <point x="1170" y="924" type="qcurve" smooth="yes"/>
      <point x="1170" y="856"/>
      <point x="1264" y="710"/>
      <point x="1264" y="600" type="qcurve" smooth="yes"/>
      <point x="1264" y="472"/>
      <point x="1088" y="301"/>
      <point x="1088" y="223" type="qcurve" smooth="yes"/>
      <point x="1088" y="117"/>
      <point x="1115" y="92" type="qcurve"/>
      <point x="1064" y="0" type="line"/>
      <point x="590" y="70"/>
      <point x="570" y="400" type="qcurve"/>
      <point x="570" y="513"/>
      <point x="649" y="711"/>
      <point x="679" y="840" type="qcurve" smooth="yes"/>
      <point x="681" y="856"/>
      <point x="681" y="871" type="qcurve" smooth="yes"/>
      <point x="681" y="1030"/>
    </contour>
  </outline>
</glyph>
<glyph name="uniAA27" format="1">
  <advance width="1741"/>
  <unicode hex="AA27"/>
  <outline>
    <contour>
      <point x="-150" y="300" type="qcurve" smooth="yes"/>
      <point x="-150" y="261"/>
      <point x="-110" y="190"/>
      <point x="-39" y="150"/>
      <point x="0" y="150" type="qcurve" smooth="yes"/>
      <point x="39" y="150"/>
      <point x="110" y="190"/>
      <point x="150" y="261"/>
      <point x="150" y="300" type="qcurve" smooth="yes"/>
      <point x="150" y="339"/>
      <point x="110" y="411"/>
      <point x="38" y="450"/>
      <point x="0" y="450" type="qcurve" smooth="yes"/>
      <point x="-38" y="450"/>
      <point x="-109" y="411"/>
      <point x="-150" y="339"/>
    </contour>
    <contour>
      <point x="381" y="824" type="qcurve" smooth="yes"/>
      <point x="381" y="766"/>
      <point x="515" y="540"/>
      <point x="515" y="420" type="qcurve" smooth="yes"/>
      <point x="515" y="0"/>
      <point x="105" y="0" type="qcurve" smooth="yes"/>
      <point x="0" y="0" type="line" smooth="yes"/>
      <point x="-78" y="0"/>
      <point x="-221" y="79"/>
      <point x="-300" y="222"/>
      <point x="-300" y="300" type="qcurve" smooth="yes"/>
      <point x="-300" y="378"/>
      <point x="-219" y="523"/>
      <point x="-76" y="600"/>
      <point x="0" y="600" type="qcurve" smooth="yes"/>
      <point x="75" y="600"/>
      <point x="219" y="523"/>
      <point x="300" y="378"/>
      <point x="300" y="300" type="qcurve" smooth="yes"/>
      <point x="300" y="242"/>
      <point x="281" y="191" type="qcurve"/>
      <point x="365" y="227"/>
      <point x="365" y="420" type="qcurve" smooth="yes"/>
      <point x="365" y="530"/>
      <point x="221" y="734"/>
      <point x="221" y="824" type="qcurve" smooth="yes"/>
      <point x="221" y="1159"/>
      <point x="544" y="1196" type="qcurve" smooth="yes"/>
      <point x="569" y="1200"/>
      <point x="585" y="1200" type="qcurve" smooth="yes"/>
      <point x="722" y="1200"/>
      <point x="832" y="1130" type="qcurve" smooth="yes"/>
      <point x="886" y="1095"/>
      <point x="940" y="1095" type="qcurve" smooth="yes"/>
      <point x="995" y="1095"/>
      <point x="1050" y="1130" type="qcurve" smooth="yes"/>
      <point x="1160" y="1200"/>
      <point x="1295" y="1200" type="qcurve" smooth="yes"/>
      <point x="1641" y="1200"/>
      <point x="1641" y="800" type="qcurve" smooth="yes"/>
      <point x="1641" y="599"/>
      <point x="1493" y="433" type="qcurve"/>
      <point x="1391" y="522" type="line"/>
      <point x="1481" y="635"/>
      <point x="1481" y="800" type="qcurve" smooth="yes"/>
      <point x="1481" y="1030"/>
      <point x="1295" y="1030" type="qcurve" smooth="yes"/>
      <point x="1173" y="1030"/>
      <point x="1076" y="970" type="qcurve" smooth="yes"/>
      <point x="1028" y="940"/>
      <point x="940" y="940" type="qcurve" smooth="yes"/>
      <point x="854" y="940"/>
      <point x="806" y="970" type="qcurve" smooth="yes"/>
      <point x="709" y="1030"/>
      <point x="595" y="1030" type="qcurve" smooth="yes"/>
      <point x="381" y="1030"/>
    </contour>
  </outline>
</glyph>
<glyph name="uniAA28" format="1">
  <advance width="1711"/>
  <unicode hex="AA28"/>
  <outline>
    <contour>
      <point x="-150" y="300" type="qcurve" smooth="yes"/>
      <point x="-150" y="261"/>
      <point x="-110" y="190"/>
      <point x="-39" y="150"/>
      <point x="0" y="150" type="qcurve" smooth="yes"/>
      <point x="39" y="150"/>
      <point x="110" y="190"/>
      <point x="150" y="261"/>
      <point x="150" y="300" type="qcurve" smooth="yes"/>
      <point x="150" y="339"/>
      <point x="110" y="411"/>
      <point x="38" y="450"/>
      <point x="0" y="450" type="qcurve" smooth="yes"/>
      <point x="-38" y="450"/>
      <point x="-109" y="411"/>
      <point x="-150" y="339"/>
    </contour>
    <contour>
      <point x="1241" y="440" type="qcurve" smooth="yes"/>
      <point x="1209" y="440"/>
      <point x="1149" y="473"/>
      <point x="1116" y="532"/>
      <point x="1116" y="565" type="qcurve" smooth="yes"/>
      <point x="1116" y="598"/>
      <point x="1150" y="658"/>
      <point x="1210" y="690"/>
      <point x="1251" y="690" type="qcurve" smooth="yes"/>
      <point x="1293" y="690"/>
      <point x="1353" y="644"/>
      <point x="1366" y="598" type="qcurve"/>
      <point x="1451" y="648"/>
      <point x="1451" y="830" type="qcurve" smooth="yes"/>
      <point x="1451" y="1030"/>
      <point x="1238" y="1030" type="qcurve" smooth="yes"/>
      <point x="1014" y="1030"/>
      <point x="950" y="830" type="qcurve"/>
      <point x="858" y="830" type="line"/>
      <point x="806" y="1030"/>
      <point x="604" y="1030" type="qcurve" smooth="yes"/>
      <point x="381" y="1030"/>
      <point x="381" y="824" type="qcurve" smooth="yes"/>
      <point x="381" y="766"/>
      <point x="515" y="540"/>
      <point x="515" y="420" type="qcurve" smooth="yes"/>
      <point x="515" y="0"/>
      <point x="105" y="0" type="qcurve" smooth="yes"/>
      <point x="0" y="0" type="line" smooth="yes"/>
      <point x="-78" y="0"/>
      <point x="-221" y="79"/>
      <point x="-300" y="222"/>
      <point x="-300" y="300" type="qcurve" smooth="yes"/>
      <point x="-300" y="378"/>
      <point x="-219" y="523"/>
      <point x="-76" y="600"/>
      <point x="0" y="600" type="qcurve" smooth="yes"/>
      <point x="75" y="600"/>
      <point x="219" y="523"/>
      <point x="300" y="378"/>
      <point x="300" y="300" type="qcurve" smooth="yes"/>
      <point x="300" y="242"/>
      <point x="281" y="191" type="qcurve"/>
      <point x="365" y="227"/>
      <point x="365" y="420" type="qcurve" smooth="yes"/>
      <point x="365" y="530"/>
      <point x="221" y="734"/>
      <point x="221" y="824" type="qcurve" smooth="yes"/>
      <point x="221" y="1200"/>
      <point x="588" y="1200" type="qcurve" smooth="yes"/>
      <point x="823" y="1200"/>
      <point x="911" y="1021" type="qcurve"/>
      <point x="1002" y="1200"/>
      <point x="1248" y="1200" type="qcurve" smooth="yes"/>
      <point x="1611" y="1200"/>
      <point x="1611" y="830" type="qcurve" smooth="yes"/>
      <point x="1611" y="440"/>
    </contour>
  </outline>
</glyph>
<glyph name="uniAA29" format="1">
  <advance width="0"/>
  <unicode hex="AA29"/>
  <outline>
    <contour>
      <point x="-557" y="1680" type="qcurve" smooth="yes"/>
      <point x="-557" y="1990"/>
      <point x="-242" y="1990" type="qcurve" smooth="yes"/>
      <point x="63" y="1990"/>
      <point x="63" y="1710" type="qcurve" smooth="yes"/>
      <point x="63" y="1465"/>
      <point x="-173" y="1465" type="qcurve"/>
      <point x="-191" y="1574" type="line"/>
      <point x="-87" y="1588"/>
      <point x="-87" y="1710" type="qcurve" smooth="yes"/>
      <point x="-87" y="1820"/>
      <point x="-257" y="1820" type="qcurve" smooth="yes"/>
      <point x="-407" y="1820"/>
      <point x="-407" y="1680" type="qcurve" smooth="yes"/>
      <point x="-407" y="1522"/>
      <point x="-100" y="1322"/>
      <point x="-98" y="1145" type="qcurve"/>
      <point x="-250" y="1145" type="line"/>
      <point x="-250" y="1270"/>
      <point x="-557" y="1460"/>
    </contour>
  </outline>
</glyph>
<glyph name="uniAA2A" format="1">
  <advance width="0"/>
  <unicode hex="AA2A"/>
  <outline>
    <contour>
      <point x="-281" y="1425" type="qcurve"/>
      <point x="-246" y="1484"/>
      <point x="-246" y="1566" type="qcurve" smooth="yes"/>
      <point x="-246" y="1594"/>
      <point x="-250" y="1624" type="qcurve" smooth="yes"/>
      <point x="-282" y="1812"/>
      <point x="-445" y="1812" type="qcurve" smooth="yes"/>
      <point x="-469" y="1812"/>
      <point x="-497" y="1808" type="qcurve" smooth="yes"/>
      <point x="-669" y="1781"/>
      <point x="-669" y="1624" type="qcurve" smooth="yes"/>
      <point x="-669" y="1589"/>
      <point x="-660" y="1547" type="qcurve" smooth="yes"/>
      <point x="-646" y="1463"/>
      <point x="-570" y="1463" type="qcurve" smooth="yes"/>
      <point x="-546" y="1463"/>
      <point x="-515" y="1471" type="qcurve" smooth="yes"/>
      <point x="-477" y="1482"/>
      <point x="-441" y="1482" type="qcurve" smooth="yes"/>
      <point x="-356" y="1482"/>
    </contour>
    <contour>
      <point x="-820" y="1483" type="qcurve" smooth="yes"/>
      <point x="-832" y="1553"/>
      <point x="-832" y="1614" type="qcurve" smooth="yes"/>
      <point x="-832" y="1936"/>
      <point x="-520" y="1976" type="qcurve" smooth="yes"/>
      <point x="-480" y="1981"/>
      <point x="-443" y="1981" type="qcurve" smooth="yes"/>
      <point x="-144" y="1981"/>
      <point x="-89" y="1638" type="qcurve" smooth="yes"/>
      <point x="-82" y="1592"/>
      <point x="-82" y="1548" type="qcurve" smooth="yes"/>
      <point x="-82" y="1468"/>
      <point x="-106" y="1395" type="qcurve" smooth="yes"/>
      <point x="-145" y="1281"/>
      <point x="-169" y="1200" type="qcurve"/>
      <point x="-268" y="1200" type="line"/>
      <point x="-333" y="1342"/>
      <point x="-472" y="1342" type="qcurve" smooth="yes"/>
      <point x="-517" y="1342"/>
      <point x="-570" y="1327" type="qcurve" smooth="yes"/>
      <point x="-617" y="1314"/>
      <point x="-656" y="1314" type="qcurve" smooth="yes"/>
      <point x="-793" y="1314"/>
    </contour>
  </outline>
</glyph>
<glyph name="uniAA2C" format="1">
  <advance width="0"/>
  <unicode hex="AA2C"/>
  <outline>
    <contour>
      <point x="-247" y="1538" type="qcurve"/>
      <point x="-289" y="1535"/>
      <point x="-334" y="1534" type="qcurve"/>
      <point x="-361" y="1673" type="line"/>
      <point x="-311" y="1678"/>
      <point x="-265" y="1684" type="qcurve"/>
      <point x="-311" y="1812"/>
      <point x="-445" y="1812" type="qcurve" smooth="yes"/>
      <point x="-469" y="1812"/>
      <point x="-497" y="1808" type="qcurve" smooth="yes"/>
      <point x="-669" y="1781"/>
      <point x="-669" y="1624" type="qcurve" smooth="yes"/>
      <point x="-669" y="1589"/>
      <point x="-660" y="1547" type="qcurve" smooth="yes"/>
      <point x="-646" y="1463"/>
      <point x="-570" y="1463" type="qcurve" smooth="yes"/>
      <point x="-546" y="1463"/>
      <point x="-515" y="1471" type="qcurve" smooth="yes"/>
      <point x="-477" y="1482"/>
      <point x="-441" y="1482" type="qcurve" smooth="yes"/>
      <point x="-356" y="1482"/>
      <point x="-281" y="1425" type="qcurve"/>
      <point x="-252" y="1474"/>
    </contour>
    <contour>
      <point x="-105" y="1711" type="qcurve"/>
      <point x="46" y="1743"/>
      <point x="111" y="1788" type="qcurve"/>
      <point x="170" y="1673" type="line"/>
      <point x="81" y="1595"/>
      <point x="-82" y="1561" type="qcurve"/>
      <point x="-82" y="1548" type="line" smooth="yes"/>
      <point x="-82" y="1468"/>
      <point x="-106" y="1395" type="qcurve" smooth="yes"/>
      <point x="-145" y="1281"/>
      <point x="-169" y="1200" type="qcurve"/>
      <point x="-268" y="1200" type="line"/>
      <point x="-333" y="1342"/>
      <point x="-472" y="1342" type="qcurve" smooth="yes"/>
      <point x="-517" y="1342"/>
      <point x="-570" y="1327" type="qcurve" smooth="yes"/>
      <point x="-617" y="1314"/>
      <point x="-656" y="1314" type="qcurve" smooth="yes"/>
      <point x="-793" y="1314"/>
      <point x="-820" y="1483" type="qcurve" smooth="yes"/>
      <point x="-832" y="1553"/>
      <point x="-832" y="1614" type="qcurve" smooth="yes"/>
      <point x="-832" y="1936"/>
      <point x="-520" y="1976" type="qcurve" smooth="yes"/>
      <point x="-480" y="1981"/>
      <point x="-443" y="1981" type="qcurve" smooth="yes"/>
      <point x="-178" y="1981"/>
    </contour>
  </outline>
</glyph>
<glyph name="uniAA2D" format="1">
  <advance width="0"/>
  <unicode hex="AA2D"/>
  <outline>
    <contour>
      <point x="-82" y="516" type="qcurve"/>
      <point x="38" y="530" type="line"/>
      <point x="56" y="489"/>
      <point x="56" y="433" type="qcurve" smooth="yes"/>
      <point x="56" y="417"/>
      <point x="55" y="401" type="qcurve" smooth="yes"/>
      <point x="48" y="304"/>
      <point x="-56" y="234"/>
      <point x="-291" y="208"/>
      <point x="-320" y="187" type="qcurve" smooth="yes"/>
      <point x="-352" y="164"/>
      <point x="-365" y="140" type="qcurve" smooth="yes"/>
      <point x="-375" y="122"/>
      <point x="-375" y="99" type="qcurve" smooth="yes"/>
      <point x="-375" y="91"/>
      <point x="-374" y="82" type="qcurve"/>
      <point x="-495" y="67" type="line"/>
      <point x="-515" y="113"/>
      <point x="-515" y="170" type="qcurve" smooth="yes"/>
      <point x="-515" y="184"/>
      <point x="-513" y="199" type="qcurve" smooth="yes"/>
      <point x="-507" y="273"/>
      <point x="-465" y="303" type="qcurve" smooth="yes"/>
      <point x="-410" y="343"/>
      <point x="-166" y="365"/>
      <point x="-135" y="387" type="qcurve" smooth="yes"/>
      <point x="-102" y="412"/>
      <point x="-89" y="451" type="qcurve" smooth="yes"/>
      <point x="-80" y="478"/>
      <point x="-80" y="498" type="qcurve" smooth="yes"/>
      <point x="-80" y="508"/>
    </contour>
  </outline>
</glyph>
<glyph name="uniAA2E" format="1">
  <advance width="0"/>
  <unicode hex="AA2E"/>
  <outline>
    <contour>
      <point x="-420" y="1555" type="line"/>
      <point x="-230" y="1592" type="line" smooth="yes"/>
      <point x="-3" y="1640"/>
      <point x="-3" y="1785" type="qcurve" smooth="yes"/>
      <point x="-3" y="1809"/>
      <point x="-9" y="1836" type="qcurve"/>
      <point x="143" y="1818" type="line"/>
      <point x="146" y="1798"/>
      <point x="146" y="1779" type="qcurve" smooth="yes"/>
      <point x="144" y="1531"/>
      <point x="-68" y="1469" type="qcurve" smooth="yes"/>
      <point x="-267" y="1410"/>
      <point x="-345" y="1410" type="qcurve" smooth="yes"/>
      <point x="-355" y="1410" type="line"/>
    </contour>
  </outline>
</glyph>
<glyph name="uniAA2F" format="1">
  <advance width="1010"/>
  <unicode hex="AA2F"/>
  <outline>
    <contour>
      <point x="100" y="750" type="qcurve" smooth="yes"/>
      <point x="100" y="1200"/>
      <point x="505" y="1200" type="qcurve" smooth="yes"/>
      <point x="910" y="1200"/>
      <point x="910" y="850" type="qcurve" smooth="yes"/>
      <point x="910" y="649"/>
      <point x="660" y="600" type="qcurve"/>
      <point x="625" y="700" type="line"/>
      <point x="760" y="755"/>
      <point x="760" y="850" type="qcurve" smooth="yes"/>
      <point x="760" y="1030"/>
      <point x="505" y="1030" type="qcurve" smooth="yes"/>
      <point x="260" y="1030"/>
      <point x="260" y="750" type="qcurve" smooth="yes"/>
      <point x="260" y="518"/>
      <point x="341" y="499" type="qcurve"/>
      <point x="364" y="535"/>
      <point x="408" y="550"/>
      <point x="440" y="550" type="qcurve" smooth="yes"/>
      <point x="471" y="550"/>
      <point x="531" y="518"/>
      <point x="565" y="458"/>
      <point x="565" y="425" type="qcurve" smooth="yes"/>
      <point x="565" y="392"/>
      <point x="532" y="333"/>
      <point x="472" y="300"/>
      <point x="440" y="300" type="qcurve" smooth="yes"/>
      <point x="100" y="300"/>
    </contour>
  </outline>
</glyph>
<glyph name="uniAA30" format="1">
  <advance width="960"/>
  <unicode hex="AA30"/>
  <outline>
    <contour>
      <point x="100" y="750" type="qcurve" smooth="yes"/>
      <point x="100" y="1200"/>
      <point x="505" y="1200" type="qcurve" smooth="yes"/>
      <point x="910" y="1200"/>
      <point x="910" y="850" type="qcurve" smooth="yes"/>
      <point x="910" y="649"/>
      <point x="660" y="600" type="qcurve"/>
      <point x="625" y="700" type="line"/>
      <point x="760" y="755"/>
      <point x="760" y="850" type="qcurve" smooth="yes"/>
      <point x="760" y="1030"/>
      <point x="505" y="1030" type="qcurve" smooth="yes"/>
      <point x="260" y="1030"/>
      <point x="260" y="750" type="qcurve" smooth="yes"/>
      <point x="260" y="518"/>
      <point x="341" y="499" type="qcurve"/>
      <point x="364" y="535"/>
      <point x="408" y="550"/>
      <point x="440" y="550" type="qcurve" smooth="yes"/>
      <point x="471" y="550"/>
      <point x="531" y="518"/>
      <point x="565" y="458"/>
      <point x="565" y="425" type="qcurve" smooth="yes"/>
      <point x="565" y="392"/>
      <point x="532" y="333"/>
      <point x="472" y="300"/>
      <point x="440" y="300" type="qcurve" smooth="yes"/>
      <point x="100" y="300"/>
    </contour>
    <contour>
      <point x="772" y="433" type="qcurve"/>
      <point x="892" y="447" type="line"/>
      <point x="910" y="406"/>
      <point x="910" y="350" type="qcurve" smooth="yes"/>
      <point x="910" y="334"/>
      <point x="909" y="318" type="qcurve" smooth="yes"/>
      <point x="902" y="221"/>
      <point x="798" y="151"/>
      <point x="563" y="125"/>
      <point x="534" y="104" type="qcurve" smooth="yes"/>
      <point x="502" y="81"/>
      <point x="489" y="57" type="qcurve" smooth="yes"/>
      <point x="479" y="39"/>
      <point x="479" y="16" type="qcurve" smooth="yes"/>
      <point x="479" y="8"/>
      <point x="480" y="-1" type="qcurve"/>
      <point x="359" y="-16" type="line"/>
      <point x="339" y="30"/>
      <point x="339" y="87" type="qcurve" smooth="yes"/>
      <point x="339" y="101"/>
      <point x="341" y="116" type="qcurve" smooth="yes"/>
      <point x="347" y="190"/>
      <point x="389" y="220" type="qcurve" smooth="yes"/>
      <point x="444" y="260"/>
      <point x="688" y="282"/>
      <point x="719" y="304" type="qcurve" smooth="yes"/>
      <point x="752" y="329"/>
      <point x="765" y="368" type="qcurve" smooth="yes"/>
      <point x="774" y="395"/>
      <point x="774" y="415" type="qcurve" smooth="yes"/>
      <point x="774" y="425"/>
    </contour>
  </outline>
</glyph>
<glyph name="uniAA33" format="1">
  <advance width="850"/>
  <unicode hex="AA33"/>
  <outline>
    <contour>
      <point x="-206" y="698" type="line"/>
      <point x="-85" y="686"/>
      <point x="70" y="559"/>
      <point x="93" y="479" type="qcurve"/>
      <point x="114" y="518"/>
      <point x="114" y="539" type="qcurve" smooth="yes"/>
      <point x="114" y="584"/>
      <point x="92" y="629" type="qcurve" smooth="yes"/>
      <point x="50" y="726"/>
      <point x="50" y="850" type="qcurve" smooth="yes"/>
      <point x="50" y="1200"/>
      <point x="400" y="1200" type="qcurve" smooth="yes"/>
      <point x="750" y="1200"/>
      <point x="750" y="870" type="qcurve" smooth="yes"/>
      <point x="750" y="692"/>
      <point x="606" y="562" type="qcurve"/>
      <point x="500" y="637" type="line"/>
      <point x="580" y="712"/>
      <point x="580" y="870" type="qcurve" smooth="yes"/>
      <point x="580" y="1030"/>
      <point x="400" y="1030" type="qcurve" smooth="yes"/>
      <point x="210" y="1030"/>
      <point x="210" y="850" type="qcurve" smooth="yes"/>
      <point x="210" y="728"/>
      <point x="234" y="673" type="qcurve" smooth="yes"/>
      <point x="261" y="603"/>
      <point x="261" y="548" type="qcurve" smooth="yes"/>
      <point x="261" y="527"/>
      <point x="258" y="509" type="qcurve" smooth="yes"/>
      <point x="232" y="384"/>
      <point x="106" y="292" type="qcurve"/>
      <point x="9" y="341" type="line"/>
      <point x="-62" y="543"/>
      <point x="-235" y="564" type="qcurve"/>
    </contour>
  </outline>
</glyph>
<glyph name="uniAA34" format="1">
  <advance width="397"/>
  <unicode hex="AA34"/>
  <outline>
    <contour>
      <point x="152" y="994" type="qcurve" smooth="yes"/>
      <point x="203" y="1155"/>
      <point x="352" y="1368" type="qcurve"/>
      <point x="237" y="1383"/>
      <point x="208" y="1423" type="qcurve" smooth="yes"/>
      <point x="183" y="1456"/>
      <point x="149" y="1456" type="qcurve" smooth="yes"/>
      <point x="141" y="1456"/>
      <point x="133" y="1454" type="qcurve" smooth="yes"/>
      <point x="89" y="1445"/>
      <point x="89" y="1400" type="qcurve" smooth="yes"/>
      <point x="89" y="1398" type="line"/>
      <point x="-45" y="1398" type="line"/>
      <point x="-40" y="1504"/>
      <point x="86" y="1603"/>
      <point x="149" y="1603" type="qcurve" smooth="yes"/>
      <point x="211" y="1603"/>
      <point x="313" y="1541"/>
      <point x="363" y="1521" type="qcurve" smooth="yes"/>
      <point x="375" y="1516"/>
      <point x="391" y="1516" type="qcurve" smooth="yes"/>
      <point x="443" y="1516"/>
      <point x="536" y="1564" type="qcurve"/>
      <point x="667" y="1484" type="line"/>
      <point x="581" y="1443"/>
      <point x="379" y="1143"/>
      <point x="270" y="799"/>
      <point x="270" y="539" type="qcurve" smooth="yes"/>
      <point x="270" y="278"/>
      <point x="365" y="-38"/>
      <point x="513" y="-229" type="qcurve"/>
      <point x="569" y="-198"/>
      <point x="604" y="-198" type="qcurve" smooth="yes"/>
      <point x="639" y="-198"/>
      <point x="700" y="-214"/>
      <point x="768" y="-272"/>
      <point x="813" y="-272" type="qcurve" smooth="yes"/>
      <point x="904" y="-272"/>
      <point x="909" y="-172" type="qcurve"/>
      <point x="1039" y="-202" type="line"/>
      <point x="1036" y="-315"/>
      <point x="902" y="-423"/>
      <point x="805" y="-423" type="qcurve" smooth="yes"/>
      <point x="774" y="-423"/>
      <point x="703" y="-392"/>
      <point x="640" y="-366"/>
      <point x="595" y="-366" type="qcurve" smooth="yes"/>
      <point x="550" y="-366"/>
      <point x="475" y="-408" type="qcurve"/>
      <point x="452" y="-388" type="line"/>
      <point x="259" y="-144"/>
      <point x="100" y="246"/>
      <point x="100" y="539" type="qcurve" smooth="yes"/>
      <point x="100" y="832"/>
    </contour>
  </outline>
</glyph>
<glyph name="uniAA35" format="1">
  <advance width="0"/>
  <unicode hex="AA35"/>
  <outline>
    <contour>
      <point x="-445" y="-260" type="qcurve"/>
      <point x="-425" y="-230"/>
      <point x="-374" y="-230" type="qcurve" smooth="yes"/>
      <point x="-362" y="-230" type="line"/>
      <point x="-301" y="-234"/>
      <point x="-272" y="-296" type="qcurve" smooth="yes"/>
      <point x="-261" y="-323"/>
      <point x="-261" y="-349" type="qcurve" smooth="yes"/>
      <point x="-261" y="-385"/>
      <point x="-323" y="-484"/>
      <point x="-527" y="-484"/>
      <point x="-627" y="-342"/>
      <point x="-627" y="-162"/>
      <point x="-524" y="-15"/>
      <point x="-261" y="-16"/>
      <point x="-211" y="-16" type="qcurve" smooth="yes"/>
      <point x="-161" y="-16"/>
      <point x="-121" y="90"/>
      <point x="-117" y="147" type="qcurve"/>
      <point x="24" y="127" type="line"/>
      <point x="23" y="-4"/>
      <point x="-55" y="-149"/>
      <point x="-144" y="-161" type="qcurve" smooth="yes"/>
      <point x="-191" y="-167"/>
      <point x="-244" y="-167" type="qcurve" smooth="yes"/>
      <point x="-293" y="-167"/>
      <point x="-346" y="-162" type="qcurve" smooth="yes"/>
      <point x="-357" y="-161"/>
      <point x="-366" y="-161" type="qcurve" smooth="yes"/>
      <point x="-447" y="-161"/>
      <point x="-447" y="-237" type="qcurve" smooth="yes"/>
      <point x="-447" y="-248"/>
    </contour>
  </outline>
</glyph>
<glyph name="uniAA40" format="1">
  <advance width="1700"/>
  <unicode hex="AA40"/>
  <outline>
    <contour>
      <point x="493" y="1030" type="qcurve" smooth="yes"/>
      <point x="260" y="1030"/>
      <point x="260" y="800" type="qcurve" smooth="yes"/>
      <point x="260" y="678"/>
      <point x="311" y="513" type="qcurve"/>
      <point x="335" y="418"/>
      <point x="335" y="333" type="qcurve" smooth="yes"/>
      <point x="335" y="269"/>
      <point x="322" y="211" type="qcurve" smooth="yes"/>
      <point x="291" y="74"/>
      <point x="179" y="-24" type="qcurve"/>
      <point x="77" y="18" type="line"/>
      <point x="171" y="191"/>
      <point x="171" y="336" type="qcurve" smooth="yes"/>
      <point x="171" y="480"/>
      <point x="100" y="690"/>
      <point x="100" y="800" type="qcurve" smooth="yes"/>
      <point x="100" y="1200"/>
      <point x="477" y="1200" type="qcurve" smooth="yes"/>
      <point x="732" y="1200"/>
      <point x="820" y="1021" type="qcurve"/>
      <point x="911" y="1200"/>
      <point x="1187" y="1200" type="qcurve" smooth="yes"/>
      <point x="1600" y="1200"/>
      <point x="1600" y="700" type="qcurve" smooth="yes"/>
      <point x="1600" y="239"/>
      <point x="1290" y="0" type="qcurve"/>
      <point x="1205" y="108" type="line"/>
      <point x="1440" y="315"/>
      <point x="1440" y="700" type="qcurve" smooth="yes"/>
      <point x="1440" y="1030"/>
      <point x="1177" y="1030" type="qcurve" smooth="yes"/>
      <point x="923" y="1030"/>
      <point x="859" y="830" type="qcurve"/>
      <point x="767" y="830" type="line"/>
      <point x="715" y="1030"/>
    </contour>
  </outline>
</glyph>
<glyph name="uniAA43" format="1">
  <advance width="0"/>
  <unicode hex="AA43"/>
  <outline>
    <contour>
      <point x="-402" y="1501" type="line"/>
      <point x="-18" y="1808"/>
      <point x="39" y="1961" type="qcurve"/>
      <point x="172" y="1913" type="line"/>
      <point x="150" y="1690"/>
      <point x="-282" y="1367" type="qcurve"/>
    </contour>
  </outline>
</glyph>
<glyph name="uniAA45" format="1">
  <advance width="1700"/>
  <unicode hex="AA45"/>
  <outline>
    <contour>
      <point x="370" y="350" type="qcurve" smooth="yes"/>
      <point x="370" y="298"/>
      <point x="423" y="203"/>
      <point x="518" y="150"/>
      <point x="570" y="150" type="qcurve" smooth="yes"/>
      <point x="622" y="150"/>
      <point x="717" y="203"/>
      <point x="770" y="298"/>
      <point x="770" y="350" type="qcurve" smooth="yes"/>
      <point x="770" y="402"/>
      <point x="716" y="498"/>
      <point x="620" y="550"/>
      <point x="570" y="550" type="qcurve" smooth="yes"/>
      <point x="520" y="550"/>
      <point x="424" y="498"/>
      <point x="370" y="402"/>
    </contour>
    <contour>
      <point x="176" y="293" type="qcurve"/>
      <point x="100" y="549"/>
      <point x="100" y="720" type="qcurve" smooth="yes"/>
      <point x="100" y="1200"/>
      <point x="477" y="1200" type="qcurve" smooth="yes"/>
      <point x="732" y="1200"/>
      <point x="820" y="1021" type="qcurve"/>
      <point x="911" y="1200"/>
      <point x="1187" y="1200" type="qcurve" smooth="yes"/>
      <point x="1600" y="1200"/>
      <point x="1600" y="700" type="qcurve" smooth="yes"/>
      <point x="1600" y="239"/>
      <point x="1290" y="0" type="qcurve"/>
      <point x="1205" y="108" type="line"/>
      <point x="1440" y="315"/>
      <point x="1440" y="700" type="qcurve" smooth="yes"/>
      <point x="1440" y="1030"/>
      <point x="1177" y="1030" type="qcurve" smooth="yes"/>
      <point x="923" y="1030"/>
      <point x="859" y="830" type="qcurve"/>
      <point x="767" y="830" type="line"/>
      <point x="715" y="1030"/>
      <point x="493" y="1030" type="qcurve" smooth="yes"/>
      <point x="260" y="1030"/>
      <point x="260" y="720" type="qcurve" smooth="yes"/>
      <point x="260" y="638"/>
      <point x="277" y="556" type="qcurve"/>
      <point x="334" y="630"/>
      <point x="481" y="700"/>
      <point x="570" y="700" type="qcurve" smooth="yes"/>
      <point x="658" y="700"/>
      <point x="825" y="610"/>
      <point x="920" y="441"/>
      <point x="920" y="350" type="qcurve" smooth="yes"/>
      <point x="920" y="259"/>
      <point x="828" y="92"/>
      <point x="661" y="0"/>
      <point x="570" y="0" type="qcurve" smooth="yes"/>
      <point x="429" y="0"/>
      <point x="242" y="112"/>
    </contour>
  </outline>
</glyph>
<glyph name="uniAA4C" format="1">
  <advance width="2"/>
  <unicode hex="AA4C"/>
  <outline>
    <contour>
      <point x="-200" y="1500" type="qcurve" smooth="yes"/>
      <point x="-169" y="1500"/>
      <point x="-109" y="1468"/>
      <point x="-75" y="1408"/>
      <point x="-75" y="1375" type="qcurve" smooth="yes"/>
      <point x="-75" y="1343"/>
      <point x="-107" y="1283"/>
      <point x="-167" y="1250"/>
      <point x="-200" y="1250" type="qcurve" smooth="yes"/>
      <point x="-232" y="1250"/>
      <point x="-292" y="1283"/>
      <point x="-325" y="1343"/>
      <point x="-325" y="1375" type="qcurve" smooth="yes"/>
      <point x="-325" y="1408"/>
      <point x="-291" y="1468"/>
      <point x="-231" y="1500"/>
    </contour>
  </outline>
</glyph>
<glyph name="uniAA4D" format="1">
  <advance width="1050"/>
  <unicode hex="AA4D"/>
  <outline>
    <contour>
      <point x="142" y="669" type="qcurve"/>
      <point x="100" y="733"/>
      <point x="100" y="830" type="qcurve" smooth="yes"/>
      <point x="100" y="1200"/>
      <point x="525" y="1200" type="qcurve" smooth="yes"/>
      <point x="950" y="1200"/>
      <point x="950" y="850" type="qcurve" smooth="yes"/>
      <point x="950" y="640"/>
      <point x="613" y="380"/>
      <point x="613" y="250" type="qcurve" smooth="yes"/>
      <point x="613" y="125" type="line" smooth="yes"/>
      <point x="613" y="0"/>
      <point x="672" y="-118" type="qcurve"/>
      <point x="523" y="-155" type="line"/>
      <point x="463" y="-110"/>
      <point x="463" y="125" type="qcurve" smooth="yes"/>
      <point x="463" y="250" type="line" smooth="yes"/>
      <point x="463" y="432"/>
      <point x="800" y="692"/>
      <point x="800" y="850" type="qcurve" smooth="yes"/>
      <point x="800" y="1030"/>
      <point x="525" y="1030" type="qcurve" smooth="yes"/>
      <point x="250" y="1030"/>
      <point x="250" y="830" type="qcurve"/>
      <point x="260" y="696"/>
      <point x="399" y="644" type="qcurve"/>
      <point x="357" y="553" type="line"/>
      <point x="230" y="567"/>
    </contour>
  </outline>
</glyph>
<glyph name="uniAA50" format="1">
  <advance width="1200"/>
  <unicode hex="AA50"/>
  <outline>
    <contour>
      <point x="344" y="935"/>
      <point x="250" y="725"/>
      <point x="250" y="600" type="qcurve" smooth="yes"/>
      <point x="250" y="475"/>
      <point x="342" y="267"/>
      <point x="509" y="170"/>
      <point x="600" y="170" type="qcurve" smooth="yes"/>
      <point x="691" y="170"/>
      <point x="858" y="267"/>
      <point x="950" y="475"/>
      <point x="950" y="600" type="qcurve" smooth="yes"/>
      <point x="950" y="725"/>
      <point x="856" y="935"/>
      <point x="688" y="1030"/>
      <point x="600" y="1030" type="qcurve" smooth="yes"/>
      <point x="512" y="1030"/>
    </contour>
    <contour>
      <point x="600" y="1200" type="qcurve" smooth="yes"/>
      <point x="726" y="1200"/>
      <point x="965" y="1045"/>
      <point x="1100" y="757"/>
      <point x="1100" y="600" type="qcurve" smooth="yes"/>
      <point x="1100" y="443"/>
      <point x="968" y="158"/>
      <point x="730" y="0"/>
      <point x="600" y="0" type="qcurve" smooth="yes"/>
      <point x="470" y="0"/>
      <point x="232" y="158"/>
      <point x="100" y="443"/>
      <point x="100" y="600" type="qcurve" smooth="yes"/>
      <point x="100" y="757"/>
      <point x="234" y="1045"/>
      <point x="473" y="1200"/>
    </contour>
  </outline>
</glyph>
<glyph name="uniAA51" format="1">
  <advance width="1050"/>
  <unicode hex="AA51"/>
  <outline>
    <contour>
      <point x="800" y="850" type="qcurve" smooth="yes"/>
      <point x="800" y="1030"/>
      <point x="525" y="1030" type="qcurve" smooth="yes"/>
      <point x="250" y="1030"/>
      <point x="250" y="830" type="qcurve" smooth="yes"/>
      <point x="250" y="756"/>
      <point x="287" y="714" type="qcurve"/>
      <point x="332" y="726"/>
      <point x="373" y="726" type="qcurve" smooth="yes"/>
      <point x="386" y="726"/>
      <point x="398" y="725" type="qcurve" smooth="yes"/>
      <point x="450" y="720"/>
      <point x="450" y="640" type="qcurve" smooth="yes"/>
      <point x="450" y="559"/>
      <point x="350" y="559" type="qcurve" smooth="yes"/>
      <point x="264" y="559"/>
      <point x="210" y="594" type="qcurve"/>
      <point x="148" y="590"/>
      <point x="108" y="541" type="qcurve"/>
      <point x="50" y="585" type="line"/>
      <point x="76" y="640"/>
      <point x="142" y="669" type="qcurve"/>
      <point x="100" y="733"/>
      <point x="100" y="830" type="qcurve" smooth="yes"/>
      <point x="100" y="1200"/>
      <point x="525" y="1200" type="qcurve" smooth="yes"/>
      <point x="950" y="1200"/>
      <point x="950" y="850" type="qcurve" smooth="yes"/>
      <point x="950" y="640"/>
      <point x="613" y="380"/>
      <point x="613" y="250" type="qcurve" smooth="yes"/>
      <point x="613" y="125" type="line" smooth="yes"/>
      <point x="613" y="0"/>
      <point x="672" y="-118" type="qcurve"/>
      <point x="523" y="-155" type="line"/>
      <point x="463" y="-110"/>
      <point x="463" y="125" type="qcurve" smooth="yes"/>
      <point x="463" y="250" type="line" smooth="yes"/>
      <point x="463" y="432"/>
      <point x="800" y="692"/>
    </contour>
  </outline>
</glyph>
<glyph name="uniAA54" format="1">
  <advance width="1289"/>
  <unicode hex="AA54"/>
  <outline>
    <contour>
      <point x="190" y="174" type="line"/>
      <point x="115" y="304"/>
      <point x="102" y="450" type="qcurve" smooth="yes"/>
      <point x="100" y="476"/>
      <point x="100" y="502" type="qcurve" smooth="yes"/>
      <point x="100" y="619"/>
      <point x="147" y="728" type="qcurve" smooth="yes"/>
      <point x="215" y="882"/>
      <point x="374" y="947" type="qcurve" smooth="yes"/>
      <point x="423" y="967"/>
      <point x="477" y="967" type="qcurve" smooth="yes"/>
      <point x="598" y="967"/>
      <point x="746" y="865" type="qcurve"/>
      <point x="837" y="814"/>
      <point x="914" y="814" type="qcurve" smooth="yes"/>
      <point x="1071" y="814"/>
      <point x="1164" y="1030" type="qcurve"/>
      <point x="1275" y="949" type="line"/>
      <point x="1143" y="650"/>
      <point x="921" y="650" type="qcurve" smooth="yes"/>
      <point x="816" y="650"/>
      <point x="690" y="717" type="qcurve"/>
      <point x="566" y="788"/>
      <point x="485" y="788" type="qcurve" smooth="yes"/>
      <point x="442" y="788"/>
      <point x="411" y="769" type="qcurve" smooth="yes"/>
      <point x="321" y="711"/>
      <point x="285" y="603" type="qcurve" smooth="yes"/>
      <point x="267" y="551"/>
      <point x="267" y="494" type="qcurve" smooth="yes"/>
      <point x="267" y="429"/>
      <point x="289" y="357" type="qcurve"/>
      <point x="310" y="427"/>
      <point x="447" y="499"/>
      <point x="528" y="500" type="qcurve" smooth="yes"/>
      <point x="530" y="500" type="line" smooth="yes"/>
      <point x="610" y="500"/>
      <point x="680" y="433" type="qcurve" smooth="yes"/>
      <point x="751" y="364"/>
      <point x="751" y="244" type="qcurve" smooth="yes"/>
      <point x="751" y="242" type="line" smooth="yes"/>
      <point x="750" y="120"/>
      <point x="661" y="50" type="qcurve" smooth="yes"/>
      <point x="593" y="-4"/>
      <point x="513" y="-4" type="qcurve" smooth="yes"/>
      <point x="487" y="-4"/>
      <point x="461" y="1" type="qcurve" smooth="yes"/>
      <point x="350" y="23"/>
      <point x="300" y="97" type="qcurve"/>
      <point x="237" y="-40" type="line"/>
      <point x="147" y="62" type="line"/>
    </contour>
    <contour>
      <point x="366" y="210" type="qcurve"/>
      <point x="387" y="183"/>
      <point x="458" y="158" type="qcurve" smooth="yes"/>
      <point x="498" y="143"/>
      <point x="529" y="143" type="qcurve" smooth="yes"/>
      <point x="551" y="143"/>
      <point x="568" y="151" type="qcurve" smooth="yes"/>
      <point x="607" y="169"/>
      <point x="609" y="249" type="qcurve" smooth="yes"/>
      <point x="609" y="253" type="line" smooth="yes"/>
      <point x="609" y="330"/>
      <point x="541" y="349" type="qcurve" smooth="yes"/>
      <point x="515" y="356"/>
      <point x="493" y="356" type="qcurve" smooth="yes"/>
      <point x="456" y="356"/>
      <point x="432" y="334" type="qcurve" smooth="yes"/>
      <point x="393" y="300"/>
    </contour>
  </outline>
</glyph>
<glyph name="uniAA57" format="1">
  <advance width="1100"/>
  <unicode hex="AA57"/>
  <outline>
    <contour>
      <point x="-150" y="300" type="qcurve" smooth="yes"/>
      <point x="-150" y="150"/>
      <point x="-30" y="150" type="qcurve" smooth="yes"/>
      <point x="90" y="150"/>
      <point x="90" y="300" type="qcurve" smooth="yes"/>
      <point x="90" y="450"/>
      <point x="-30" y="450" type="qcurve" smooth="yes"/>
      <point x="-150" y="450"/>
    </contour>
    <contour>
      <point x="361" y="884" type="qcurve" smooth="yes"/>
      <point x="361" y="806"/>
      <point x="465" y="580"/>
      <point x="465" y="460" type="qcurve" smooth="yes"/>
      <point x="465" y="0"/>
      <point x="105" y="0" type="qcurve" smooth="yes"/>
      <point x="-30" y="0" type="line" smooth="yes"/>
      <point x="-300" y="0"/>
      <point x="-300" y="300" type="qcurve" smooth="yes"/>
      <point x="-300" y="600"/>
      <point x="-30" y="600" type="qcurve" smooth="yes"/>
      <point x="240" y="600"/>
      <point x="240" y="300" type="qcurve" smooth="yes"/>
      <point x="240" y="222"/>
      <point x="201" y="151" type="qcurve"/>
      <point x="315" y="227"/>
      <point x="315" y="460" type="qcurve" smooth="yes"/>
      <point x="315" y="570"/>
      <point x="211" y="774"/>
      <point x="211" y="884" type="qcurve" smooth="yes"/>
      <point x="211" y="1200"/>
      <point x="616" y="1200" type="qcurve" smooth="yes"/>
      <point x="1000" y="1200"/>
      <point x="1000" y="770" type="qcurve" smooth="yes"/>
      <point x="1000" y="446"/>
      <point x="510" y="5"/>
      <point x="510" y="-240" type="qcurve" smooth="yes"/>
      <point x="510" y="-340"/>
      <point x="576" y="-340" type="qcurve" smooth="yes"/>
      <point x="643" y="-340"/>
      <point x="818" y="-100"/>
      <point x="933" y="-100" type="qcurve" smooth="yes"/>
      <point x="1100" y="-100"/>
      <point x="1100" y="-255" type="qcurve" smooth="yes"/>
      <point x="1100" y="-410"/>
      <point x="1028" y="-497" type="qcurve"/>
      <point x="904" y="-419" type="line"/>
      <point x="964" y="-336"/>
      <point x="965" y="-293" type="qcurve" smooth="yes"/>
      <point x="965" y="-292" type="line" smooth="yes"/>
      <point x="965" y="-250"/>
      <point x="912" y="-250" type="qcurve" smooth="yes"/>
      <point x="858" y="-250"/>
      <point x="691" y="-500"/>
      <point x="576" y="-500" type="qcurve" smooth="yes"/>
      <point x="352" y="-500"/>
      <point x="352" y="-240" type="qcurve" smooth="yes"/>
      <point x="352" y="1"/>
      <point x="850" y="511"/>
      <point x="850" y="770" type="qcurve" smooth="yes"/>
      <point x="850" y="1030"/>
      <point x="616" y="1030" type="qcurve" smooth="yes"/>
      <point x="361" y="1030"/>
    </contour>
  </outline>
</glyph>
<glyph name="uniAA58" format="1">
  <advance width="1700"/>
  <unicode hex="AA58"/>
  <outline>
    <contour>
      <point x="628" y="436" type="qcurve"/>
      <point x="462" y="325"/>
      <point x="462" y="210" type="qcurve" smooth="yes"/>
      <point x="462" y="151"/>
      <point x="507" y="151" type="qcurve" smooth="yes"/>
      <point x="550" y="151"/>
      <point x="611" y="319"/>
    </contour>
    <contour>
      <point x="820" y="800" type="qcurve" smooth="yes"/>
      <point x="820" y="749"/>
      <point x="817" y="677" type="qcurve"/>
      <point x="880" y="704"/>
      <point x="900" y="830" type="qcurve"/>
      <point x="902" y="1200"/>
      <point x="1250" y="1200" type="qcurve" smooth="yes"/>
      <point x="1600" y="1200"/>
      <point x="1600" y="800" type="qcurve" smooth="yes"/>
      <point x="1600" y="446"/>
      <point x="890" y="-25"/>
      <point x="890" y="-240" type="qcurve" smooth="yes"/>
      <point x="890" y="-340"/>
      <point x="956" y="-340" type="qcurve" smooth="yes"/>
      <point x="1023" y="-340"/>
      <point x="1198" y="-100"/>
      <point x="1313" y="-100" type="qcurve" smooth="yes"/>
      <point x="1480" y="-100"/>
      <point x="1480" y="-255" type="qcurve" smooth="yes"/>
      <point x="1480" y="-410"/>
      <point x="1408" y="-497" type="qcurve"/>
      <point x="1284" y="-419" type="line"/>
      <point x="1344" y="-336"/>
      <point x="1345" y="-293" type="qcurve" smooth="yes"/>
      <point x="1345" y="-292" type="line" smooth="yes"/>
      <point x="1345" y="-250"/>
      <point x="1292" y="-250" type="qcurve" smooth="yes"/>
      <point x="1238" y="-250"/>
      <point x="1071" y="-500"/>
      <point x="956" y="-500" type="qcurve" smooth="yes"/>
      <point x="732" y="-500"/>
      <point x="732" y="-240" type="qcurve" smooth="yes"/>
      <point x="732" y="1"/>
      <point x="1440" y="541"/>
      <point x="1440" y="800" type="qcurve" smooth="yes"/>
      <point x="1440" y="1030"/>
      <point x="1250" y="1030" type="qcurve" smooth="yes"/>
      <point x="1076" y="1030"/>
      <point x="1060" y="830" type="qcurve" smooth="yes"/>
      <point x="1041" y="572"/>
      <point x="796" y="491" type="qcurve"/>
      <point x="766" y="195"/>
      <point x="598" y="0"/>
      <point x="507" y="0" type="qcurve" smooth="yes"/>
      <point x="316" y="0"/>
      <point x="306" y="210" type="qcurve"/>
      <point x="316" y="420"/>
      <point x="570" y="562" type="qcurve"/>
      <point x="645" y="606" type="line"/>
      <point x="660" y="703"/>
      <point x="660" y="800" type="qcurve" smooth="yes"/>
      <point x="660" y="1030"/>
      <point x="465" y="1030" type="qcurve" smooth="yes"/>
      <point x="270" y="1030"/>
      <point x="270" y="830" type="qcurve" smooth="yes"/>
      <point x="270" y="678"/>
      <point x="410" y="637" type="qcurve"/>
      <point x="357" y="525" type="line"/>
      <point x="100" y="570"/>
      <point x="100" y="830" type="qcurve" smooth="yes"/>
      <point x="100" y="1200"/>
      <point x="460" y="1200" type="qcurve" smooth="yes"/>
      <point x="820" y="1200"/>
    </contour>
  </outline>
</glyph>
<glyph name="uniAA5D" format="1">
  <advance width="457"/>
  <unicode hex="AA5D"/>
  <outline>
    <contour>
      <point x="100" y="0" type="line"/>
      <point x="215" y="282"/>
      <point x="215" y="609" type="qcurve" smooth="yes"/>
      <point x="215" y="888"/>
      <point x="131" y="1200" type="qcurve"/>
      <point x="286" y="1200" type="line"/>
      <point x="357" y="920"/>
      <point x="357" y="679" type="qcurve" smooth="yes"/>
      <point x="357" y="288"/>
      <point x="168" y="0" type="qcurve"/>
    </contour>
  </outline>
</glyph>
<glyph name="uniAA5E" format="1">
  <advance width="757"/>
  <unicode hex="AA5E"/>
  <outline>
    <contour>
      <point x="180" y="100" type="line"/>
      <point x="228" y="321"/>
      <point x="228" y="537" type="qcurve" smooth="yes"/>
      <point x="228" y="875"/>
      <point x="110" y="1200" type="qcurve"/>
      <point x="268" y="1200" type="line"/>
      <point x="320" y="1043"/>
      <point x="343" y="898" type="qcurve" smooth="yes"/>
      <point x="360" y="790"/>
      <point x="360" y="681" type="qcurve" smooth="yes"/>
      <point x="360" y="398"/>
      <point x="245" y="100" type="qcurve"/>
    </contour>
    <contour>
      <point x="400" y="0" type="line"/>
      <point x="515" y="282"/>
      <point x="515" y="609" type="qcurve" smooth="yes"/>
      <point x="515" y="888"/>
      <point x="431" y="1200" type="qcurve"/>
      <point x="586" y="1200" type="line"/>
      <point x="657" y="920"/>
      <point x="657" y="679" type="qcurve" smooth="yes"/>
      <point x="657" y="288"/>
      <point x="468" y="0" type="qcurve"/>
    </contour>
    <contour>
      <point x="200" y="1440" type="qcurve" smooth="yes"/>
      <point x="225" y="1440"/>
      <point x="273" y="1414"/>
      <point x="300" y="1366"/>
      <point x="300" y="1340" type="qcurve" smooth="yes"/>
      <point x="300" y="1314"/>
      <point x="274" y="1266"/>
      <point x="226" y="1240"/>
      <point x="200" y="1240" type="qcurve" smooth="yes"/>
      <point x="174" y="1240"/>
      <point x="126" y="1266"/>
      <point x="100" y="1314"/>
      <point x="100" y="1340" type="qcurve" smooth="yes"/>
      <point x="100" y="1366"/>
      <point x="127" y="1414"/>
      <point x="175" y="1440"/>
    </contour>
    <contour>
      <point x="452" y="1445" type="qcurve" smooth="yes"/>
      <point x="477" y="1445"/>
      <point x="525" y="1419"/>
      <point x="552" y="1371"/>
      <point x="552" y="1345" type="qcurve" smooth="yes"/>
      <point x="552" y="1319"/>
      <point x="526" y="1271"/>
      <point x="478" y="1245"/>
      <point x="452" y="1245" type="qcurve" smooth="yes"/>
      <point x="426" y="1245"/>
      <point x="378" y="1271"/>
      <point x="352" y="1319"/>
      <point x="352" y="1345" type="qcurve" smooth="yes"/>
      <point x="352" y="1371"/>
      <point x="379" y="1419"/>
      <point x="427" y="1445"/>
    </contour>
    <contour>
      <point x="310" y="1679" type="qcurve" smooth="yes"/>
      <point x="335" y="1679"/>
      <point x="383" y="1653"/>
      <point x="410" y="1605"/>
      <point x="410" y="1579" type="qcurve" smooth="yes"/>
      <point x="410" y="1553"/>
      <point x="384" y="1505"/>
      <point x="336" y="1479"/>
      <point x="310" y="1479" type="qcurve" smooth="yes"/>
      <point x="284" y="1479"/>
      <point x="236" y="1505"/>
      <point x="210" y="1553"/>
      <point x="210" y="1579" type="qcurve" smooth="yes"/>
      <point x="210" y="1605"/>
      <point x="237" y="1653"/>
      <point x="285" y="1679"/>
    </contour>
  </outline>
</glyph>
<glyph name="uniAA5F" format="1">
  <advance width="1063"/>
  <unicode hex="AA5F"/>
  <outline>
    <contour>
      <point x="293" y="400" type="line"/>
      <point x="293" y="427" type="line" smooth="yes"/>
      <point x="293" y="808"/>
      <point x="100" y="1200" type="qcurve"/>
      <point x="261" y="1200" type="line"/>
      <point x="291" y="1130"/>
      <point x="314" y="1063" type="qcurve" smooth="yes"/>
      <point x="389" y="842"/>
      <point x="389" y="635" type="qcurve" smooth="yes"/>
      <point x="389" y="515"/>
      <point x="364" y="400" type="qcurve"/>
    </contour>
    <contour>
      <point x="506" y="200" type="line"/>
      <point x="542" y="363"/>
      <point x="542" y="534" type="qcurve" smooth="yes"/>
      <point x="542" y="854"/>
      <point x="416" y="1200" type="qcurve"/>
      <point x="574" y="1200" type="line"/>
      <point x="626" y="1043"/>
      <point x="649" y="898" type="qcurve" smooth="yes"/>
      <point x="668" y="780"/>
      <point x="668" y="668" type="qcurve" smooth="yes"/>
      <point x="668" y="417"/>
      <point x="571" y="200" type="qcurve"/>
    </contour>
    <contour>
      <point x="706" y="0" type="line"/>
      <point x="821" y="282"/>
      <point x="821" y="609" type="qcurve" smooth="yes"/>
      <point x="821" y="888"/>
      <point x="737" y="1200" type="qcurve"/>
      <point x="892" y="1200" type="line"/>
      <point x="963" y="920"/>
      <point x="963" y="679" type="qcurve" smooth="yes"/>
      <point x="963" y="288"/>
      <point x="774" y="0" type="qcurve"/>
    </contour>
  </outline>
</glyph>
<glyph name=".notdef" format="1">
  <advance width="1536"/>
  <outline>
    <contour>
      <point x="256" y="0" type="line"/>
      <point x="256" y="1280" type="line"/>
      <point x="1280" y="1280" type="line"/>
      <point x="1280" y="0" type="line"/>
    </contour>
    <contour>
      <point x="288" y="32" type="line"/>
      <point x="1248" y="32" type="line"/>
      <point x="1248" y="1248" type="line"/>
      <point x="288" y="1248" type="line"/>
    </contour>
  </outline>
</glyph>
<glyph name="glyph119" format="1">
  <advance width="0"/>
  <outline>
    <contour>
      <point x="-445" y="110" type="qcurve"/>
      <point x="-425" y="140"/>
      <point x="-374" y="140" type="qcurve" smooth="yes"/>
      <point x="-362" y="140" type="line"/>
      <point x="-301" y="136"/>
      <point x="-272" y="74" type="qcurve" smooth="yes"/>
      <point x="-261" y="47"/>
      <point x="-261" y="21" type="qcurve" smooth="yes"/>
      <point x="-261" y="-15"/>
      <point x="-323" y="-114"/>
      <point x="-527" y="-114"/>
      <point x="-627" y="28"/>
      <point x="-627" y="208"/>
      <point x="-524" y="355"/>
      <point x="-261" y="354"/>
      <point x="-211" y="354" type="qcurve" smooth="yes"/>
      <point x="-161" y="354"/>
      <point x="-121" y="460"/>
      <point x="-117" y="517" type="qcurve"/>
      <point x="24" y="497" type="line"/>
      <point x="23" y="366"/>
      <point x="-55" y="221"/>
      <point x="-144" y="209" type="qcurve" smooth="yes"/>
      <point x="-191" y="203"/>
      <point x="-244" y="203" type="qcurve" smooth="yes"/>
      <point x="-293" y="203"/>
      <point x="-346" y="208" type="qcurve" smooth="yes"/>
      <point x="-357" y="209"/>
      <point x="-366" y="209" type="qcurve" smooth="yes"/>
      <point x="-447" y="209"/>
      <point x="-447" y="133" type="qcurve" smooth="yes"/>
      <point x="-447" y="122"/>
    </contour>
  </outline>
</glyph>
<glyph name="glyph120" format="1">
  <advance width="0"/>
  <outline>
    <contour>
      <point x="-155" y="270" type="qcurve"/>
      <point x="-234" y="217"/>
      <point x="-268" y="144" type="qcurve" smooth="yes"/>
      <point x="-290" y="96"/>
      <point x="-290" y="56" type="qcurve" smooth="yes"/>
      <point x="-290" y="36"/>
      <point x="-284" y="18" type="qcurve" smooth="yes"/>
      <point x="-272" y="-20"/>
      <point x="-237" y="-20" type="qcurve" smooth="yes"/>
      <point x="-223" y="-20"/>
      <point x="-204" y="-13" type="qcurve" smooth="yes"/>
      <point x="-141" y="9"/>
      <point x="-136" y="156" type="qcurve"/>
      <point x="-136" y="161" type="line" smooth="yes"/>
      <point x="-136" y="210"/>
    </contour>
    <contour>
      <point x="-29" y="340" type="line" smooth="yes"/>
      <point x="-8" y="280"/>
      <point x="-5" y="229" type="qcurve" smooth="yes"/>
      <point x="-2" y="196"/>
      <point x="-2" y="166" type="qcurve" smooth="yes"/>
      <point x="-2" y="26"/>
      <point x="-66" y="-59" type="qcurve"/>
      <point x="-142" y="-152"/>
      <point x="-234" y="-153" type="qcurve" smooth="yes"/>
      <point x="-236" y="-153" type="line" smooth="yes"/>
      <point x="-326" y="-153"/>
      <point x="-377" y="-91" type="qcurve" smooth="yes"/>
      <point x="-422" y="-38"/>
      <point x="-422" y="43" type="qcurve" smooth="yes"/>
      <point x="-422" y="56"/>
      <point x="-421" y="70" type="qcurve" smooth="yes"/>
      <point x="-412" y="169"/>
      <point x="-355" y="248" type="qcurve" smooth="yes"/>
      <point x="-275" y="359"/>
      <point x="-194" y="398" type="qcurve"/>
      <point x="-212" y="440"/>
      <point x="-239" y="489" type="qcurve"/>
      <point x="-117" y="535" type="line"/>
      <point x="-84" y="476"/>
      <point x="-59" y="421" type="qcurve"/>
    </contour>
  </outline>
</glyph>
<glyph name="uniAA29_uniAA2E.liga" format="1">
  <advance width="103"/>
  <outline>
    <contour>
      <point x="48" y="1601" type="qcurve"/>
      <point x="115" y="1607"/>
      <point x="157" y="1656" type="qcurve"/>
      <point x="238" y="1583" type="line"/>
      <point x="142" y="1456"/>
      <point x="-57" y="1456" type="qcurve" smooth="yes"/>
      <point x="-111" y="1456"/>
      <point x="-173" y="1465" type="qcurve"/>
      <point x="-191" y="1574" type="line"/>
      <point x="-87" y="1588"/>
      <point x="-87" y="1710" type="qcurve" smooth="yes"/>
      <point x="-87" y="1820"/>
      <point x="-257" y="1820" type="qcurve" smooth="yes"/>
      <point x="-407" y="1820"/>
      <point x="-407" y="1680" type="qcurve" smooth="yes"/>
      <point x="-407" y="1522"/>
      <point x="-100" y="1322"/>
      <point x="-98" y="1145" type="qcurve" smooth="yes"/>
      <point x="-98" y="955" type="line"/>
      <point x="-250" y="955" type="line"/>
      <point x="-250" y="1145" type="line" smooth="yes"/>
      <point x="-250" y="1270"/>
      <point x="-557" y="1460"/>
      <point x="-557" y="1680" type="qcurve" smooth="yes"/>
      <point x="-557" y="1990"/>
      <point x="-242" y="1990" type="qcurve" smooth="yes"/>
      <point x="63" y="1990"/>
      <point x="63" y="1710" type="qcurve" smooth="yes"/>
      <point x="63" y="1648"/>
    </contour>
  </outline>
</glyph>
<glyph name="uniAA2A_uniAA4C.liga" format="1">
  <advance width="4"/>
  <outline>
    <contour>
      <point x="64" y="1700" type="qcurve" smooth="yes"/>
      <point x="89" y="1700"/>
      <point x="137" y="1674"/>
      <point x="164" y="1626"/>
      <point x="164" y="1600" type="qcurve" smooth="yes"/>
      <point x="164" y="1574"/>
      <point x="138" y="1526"/>
      <point x="90" y="1500"/>
      <point x="64" y="1500" type="qcurve" smooth="yes"/>
      <point x="38" y="1500"/>
      <point x="-10" y="1526"/>
      <point x="-36" y="1574"/>
      <point x="-36" y="1600" type="qcurve" smooth="yes"/>
      <point x="-36" y="1626"/>
      <point x="-9" y="1674"/>
      <point x="39" y="1700"/>
    </contour>
    <contour>
      <point x="-277" y="1425" type="qcurve"/>
      <point x="-242" y="1484"/>
      <point x="-242" y="1566" type="qcurve" smooth="yes"/>
      <point x="-242" y="1594"/>
      <point x="-246" y="1624" type="qcurve" smooth="yes"/>
      <point x="-278" y="1812"/>
      <point x="-441" y="1812" type="qcurve" smooth="yes"/>
      <point x="-465" y="1812"/>
      <point x="-493" y="1808" type="qcurve" smooth="yes"/>
      <point x="-665" y="1781"/>
      <point x="-665" y="1624" type="qcurve" smooth="yes"/>
      <point x="-665" y="1589"/>
      <point x="-656" y="1547" type="qcurve" smooth="yes"/>
      <point x="-642" y="1463"/>
      <point x="-566" y="1463" type="qcurve" smooth="yes"/>
      <point x="-542" y="1463"/>
      <point x="-511" y="1471" type="qcurve" smooth="yes"/>
      <point x="-473" y="1482"/>
      <point x="-437" y="1482" type="qcurve" smooth="yes"/>
      <point x="-352" y="1482"/>
    </contour>
    <contour>
      <point x="-816" y="1483" type="qcurve" smooth="yes"/>
      <point x="-828" y="1553"/>
      <point x="-828" y="1614" type="qcurve" smooth="yes"/>
      <point x="-828" y="1936"/>
      <point x="-516" y="1976" type="qcurve" smooth="yes"/>
      <point x="-476" y="1981"/>
      <point x="-439" y="1981" type="qcurve" smooth="yes"/>
      <point x="-140" y="1981"/>
      <point x="-85" y="1638" type="qcurve" smooth="yes"/>
      <point x="-78" y="1592"/>
      <point x="-78" y="1548" type="qcurve" smooth="yes"/>
      <point x="-78" y="1468"/>
      <point x="-102" y="1395" type="qcurve" smooth="yes"/>
      <point x="-141" y="1281"/>
      <point x="-165" y="1200" type="qcurve"/>
      <point x="-264" y="1200" type="line"/>
      <point x="-329" y="1342"/>
      <point x="-468" y="1342" type="qcurve" smooth="yes"/>
      <point x="-513" y="1342"/>
      <point x="-566" y="1327" type="qcurve" smooth="yes"/>
      <point x="-613" y="1314"/>
      <point x="-652" y="1314" type="qcurve" smooth="yes"/>
      <point x="-789" y="1314"/>
    </contour>
  </outline>
</glyph>
<glyph name="uniAA2E_uniAA31.liga" format="1">
  <advance width="0"/>
  <outline>
    <contour>
      <point x="-1138" y="1726" type="line"/>
      <point x="-948" y="1763" type="line" smooth="yes"/>
      <point x="-721" y="1811"/>
      <point x="-721" y="1956" type="qcurve" smooth="yes"/>
      <point x="-721" y="1980"/>
      <point x="-727" y="2007" type="qcurve"/>
      <point x="-575" y="1989" type="line"/>
      <point x="-572" y="1969"/>
      <point x="-572" y="1950" type="qcurve" smooth="yes"/>
      <point x="-574" y="1702"/>
      <point x="-786" y="1640" type="qcurve" smooth="yes"/>
      <point x="-985" y="1581"/>
      <point x="-1063" y="1581" type="qcurve" smooth="yes"/>
      <point x="-1073" y="1581" type="line"/>
    </contour>
    <contour>
      <point x="-90" y="1997" type="qcurve"/>
      <point x="1" y="1958" type="line"/>
      <point x="1" y="1849"/>
      <point x="-82" y="1721" type="qcurve" smooth="yes"/>
      <point x="-117" y="1672"/>
      <point x="-218" y="1672" type="qcurve" smooth="yes"/>
      <point x="-245" y="1672"/>
      <point x="-278" y="1676" type="qcurve" smooth="yes"/>
      <point x="-331" y="1684"/>
      <point x="-371" y="1684" type="qcurve" smooth="yes"/>
      <point x="-432" y="1684"/>
      <point x="-463" y="1665" type="qcurve"/>
      <point x="-493" y="1621"/>
      <point x="-493" y="1571" type="qcurve" smooth="yes"/>
      <point x="-493" y="1518"/>
      <point x="-458" y="1459" type="qcurve" smooth="yes"/>
      <point x="-419" y="1391"/>
      <point x="-370" y="1391" type="qcurve" smooth="yes"/>
      <point x="-335" y="1391"/>
      <point x="-294" y="1426" type="qcurve" smooth="yes"/>
      <point x="-198" y="1509"/>
      <point x="-168" y="1629" type="qcurve"/>
      <point x="4" y="1601" type="line"/>
      <point x="9" y="1568"/>
      <point x="9" y="1534" type="qcurve" smooth="yes"/>
      <point x="9" y="1419"/>
      <point x="-38" y="1250" type="qcurve"/>
      <point x="-182" y="1232" type="line"/>
      <point x="-167" y="1324"/>
      <point x="-152" y="1406" type="qcurve"/>
      <point x="-162" y="1377"/>
      <point x="-197" y="1346" type="qcurve" smooth="yes"/>
      <point x="-294" y="1246"/>
      <point x="-388" y="1246" type="qcurve" smooth="yes"/>
      <point x="-473" y="1246"/>
      <point x="-555" y="1325" type="qcurve" smooth="yes"/>
      <point x="-653" y="1420"/>
      <point x="-653" y="1532" type="qcurve" smooth="yes"/>
      <point x="-653" y="1620"/>
      <point x="-594" y="1717" type="qcurve" smooth="yes"/>
      <point x="-527" y="1830"/>
      <point x="-344" y="1830" type="qcurve" smooth="yes"/>
      <point x="-319" y="1830"/>
      <point x="-291" y="1828" type="qcurve"/>
      <point x="-274" y="1822"/>
      <point x="-258" y="1822" type="qcurve" smooth="yes"/>
      <point x="-169" y="1822"/>
    </contour>
  </outline>
</glyph>
<glyph name="uniAA2E_uniAA43.liga" format="1">
  <advance width="0"/>
  <outline>
    <contour>
      <point x="-420" y="1535" type="line"/>
      <point x="-230" y="1572" type="line" smooth="yes"/>
      <point x="-3" y="1620"/>
      <point x="-3" y="1765" type="qcurve" smooth="yes"/>
      <point x="-3" y="1789"/>
      <point x="-9" y="1816" type="qcurve"/>
      <point x="143" y="1798" type="line"/>
      <point x="146" y="1778"/>
      <point x="146" y="1759" type="qcurve" smooth="yes"/>
      <point x="144" y="1511"/>
      <point x="-68" y="1449" type="qcurve" smooth="yes"/>
      <point x="-267" y="1390"/>
      <point x="-345" y="1390" type="qcurve" smooth="yes"/>
      <point x="-355" y="1390" type="line"/>
    </contour>
    <contour>
      <point x="-711" y="1636" type="line"/>
      <point x="-272" y="1857"/>
      <point x="-185" y="1995" type="qcurve"/>
      <point x="-65" y="1921" type="line"/>
      <point x="-132" y="1707"/>
      <point x="-621" y="1480" type="qcurve"/>
    </contour>
  </outline>
</glyph>
<glyph name="uniAA2E_uniAA4C.liga" format="1">
  <advance width="0"/>
  <outline>
    <contour>
      <point x="-224" y="1873" type="qcurve" smooth="yes"/>
      <point x="-199" y="1873"/>
      <point x="-151" y="1847"/>
      <point x="-124" y="1799"/>
      <point x="-124" y="1773" type="qcurve" smooth="yes"/>
      <point x="-124" y="1747"/>
      <point x="-150" y="1699"/>
      <point x="-198" y="1673"/>
      <point x="-224" y="1673" type="qcurve" smooth="yes"/>
      <point x="-250" y="1673"/>
      <point x="-298" y="1699"/>
      <point x="-324" y="1747"/>
      <point x="-324" y="1773" type="qcurve" smooth="yes"/>
      <point x="-324" y="1799"/>
      <point x="-297" y="1847"/>
      <point x="-249" y="1873"/>
    </contour>
    <contour>
      <point x="-420" y="1555" type="line"/>
      <point x="-230" y="1592" type="line" smooth="yes"/>
      <point x="-3" y="1640"/>
      <point x="-3" y="1785" type="qcurve" smooth="yes"/>
      <point x="-3" y="1809"/>
      <point x="-9" y="1836" type="qcurve"/>
      <point x="143" y="1818" type="line"/>
      <point x="146" y="1798"/>
      <point x="146" y="1779" type="qcurve" smooth="yes"/>
      <point x="144" y="1531"/>
      <point x="-68" y="1469" type="qcurve" smooth="yes"/>
      <point x="-267" y="1410"/>
      <point x="-345" y="1410" type="qcurve" smooth="yes"/>
      <point x="-355" y="1410" type="line"/>
    </contour>
  </outline>
</glyph>
<glyph name="uniAA31_uniAA4C.liga" format="1">
  <advance width="0"/>
  <outline>
    <contour>
      <point x="-322" y="1997" type="qcurve" smooth="yes"/>
      <point x="-298" y="1997"/>
      <point x="-254" y="1972"/>
      <point x="-229" y="1927"/>
      <point x="-229" y="1902" type="qcurve" smooth="yes"/>
      <point x="-229" y="1877"/>
      <point x="-253" y="1832"/>
      <point x="-297" y="1807"/>
      <point x="-322" y="1807" type="qcurve" smooth="yes"/>
      <point x="-346" y="1807"/>
      <point x="-390" y="1832"/>
      <point x="-415" y="1877"/>
      <point x="-415" y="1902" type="qcurve" smooth="yes"/>
      <point x="-415" y="1927"/>
      <point x="-389" y="1972"/>
      <point x="-345" y="1997"/>
    </contour>
    <contour>
      <point x="-90" y="1967" type="qcurve"/>
      <point x="1" y="1928" type="line"/>
      <point x="1" y="1819"/>
      <point x="-82" y="1691" type="qcurve" smooth="yes"/>
      <point x="-117" y="1642"/>
      <point x="-218" y="1642" type="qcurve" smooth="yes"/>
      <point x="-245" y="1642"/>
      <point x="-278" y="1646" type="qcurve" smooth="yes"/>
      <point x="-331" y="1654"/>
      <point x="-371" y="1654" type="qcurve" smooth="yes"/>
      <point x="-432" y="1654"/>
      <point x="-463" y="1635" type="qcurve"/>
      <point x="-493" y="1591"/>
      <point x="-493" y="1541" type="qcurve" smooth="yes"/>
      <point x="-493" y="1488"/>
      <point x="-458" y="1429" type="qcurve" smooth="yes"/>
      <point x="-419" y="1361"/>
      <point x="-370" y="1361" type="qcurve" smooth="yes"/>
      <point x="-335" y="1361"/>
      <point x="-294" y="1396" type="qcurve" smooth="yes"/>
      <point x="-198" y="1479"/>
      <point x="-168" y="1599" type="qcurve"/>
      <point x="4" y="1571" type="line"/>
      <point x="9" y="1538"/>
      <point x="9" y="1504" type="qcurve" smooth="yes"/>
      <point x="9" y="1389"/>
      <point x="-38" y="1220" type="qcurve"/>
      <point x="-182" y="1202" type="line"/>
      <point x="-167" y="1294"/>
      <point x="-152" y="1376" type="qcurve"/>
      <point x="-162" y="1347"/>
      <point x="-197" y="1316" type="qcurve" smooth="yes"/>
      <point x="-294" y="1216"/>
      <point x="-388" y="1216" type="qcurve" smooth="yes"/>
      <point x="-473" y="1216"/>
      <point x="-555" y="1295" type="qcurve" smooth="yes"/>
      <point x="-653" y="1390"/>
      <point x="-653" y="1502" type="qcurve" smooth="yes"/>
      <point x="-653" y="1590"/>
      <point x="-594" y="1687" type="qcurve" smooth="yes"/>
      <point x="-527" y="1800"/>
      <point x="-344" y="1800" type="qcurve" smooth="yes"/>
      <point x="-319" y="1800"/>
      <point x="-291" y="1798" type="qcurve"/>
      <point x="-274" y="1792"/>
      <point x="-258" y="1792" type="qcurve" smooth="yes"/>
      <point x="-169" y="1792"/>
    </contour>
  </outline>
</glyph>
